<svg id="visual" viewBox="0 0 900 600" width="900" height="600" xmlns="http://www.w3.org/2000/svg" xmlns:xlink="http://www.w3.org/1999/xlink" version="1.1"><path d="M0 373L21.5 374.7C43 376.3 86 379.7 128.8 390.2C171.7 400.7 214.3 418.3 257.2 416.2C300 414 343 392 385.8 382.8C428.7 373.7 471.3 377.3 514.2 386.2C557 395 600 409 642.8 406.7C685.7 404.3 728.3 385.7 771.2 379C814 372.3 857 377.7 878.5 380.3L900 383L900 601L878.5 601C857 601 814 601 771.2 601C728.3 601 685.7 601 642.8 601C600 601 557 601 514.2 601C471.3 601 428.7 601 385.8 601C343 601 300 601 257.2 601C214.3 601 171.7 601 128.8 601C86 601 43 601 21.5 601L0 601Z" fill="#000000"></path><path d="M0 425L21.5 426.2C43 427.3 86 429.7 128.8 435.7C171.7 441.7 214.3 451.3 257.2 457.2C300 463 343 465 385.8 457.7C428.7 450.3 471.3 433.7 514.2 432C557 430.3 600 443.7 642.8 451.3C685.7 459 728.3 461 771.2 462.5C814 464 857 465 878.5 465.5L900 466L900 601L878.5 601C857 601 814 601 771.2 601C728.3 601 685.7 601 642.8 601C600 601 557 601 514.2 601C471.3 601 428.7 601 385.8 601C343 601 300 601 257.2 601C214.3 601 171.7 601 128.8 601C86 601 43 601 21.5 601L0 601Z" fill="#979797"></path><path d="M0 492L21.5 487.5C43 483 86 474 128.8 474.7C171.7 475.3 214.3 485.7 257.2 483.5C300 481.3 343 466.7 385.8 468.8C428.7 471 471.3 490 514.2 494.7C557 499.3 600 489.7 642.8 479.8C685.7 470 728.3 460 771.2 455.8C814 451.7 857 453.3 878.5 454.2L900 455L900 601L878.5 601C857 601 814 601 771.2 601C728.3 601 685.7 601 642.8 601C600 601 557 601 514.2 601C471.3 601 428.7 601 385.8 601C343 601 300 601 257.2 601C214.3 601 171.7 601 128.8 601C86 601 43 601 21.5 601L0 601Z" fill="#ffffff"></path><path d="M0 509L21.5 512.3C43 515.7 86 522.3 128.8 523.7C171.7 525 214.3 521 257.2 520.8C300 520.7 343 524.3 385.8 527C428.7 529.7 471.3 531.3 514.2 530.8C557 530.3 600 527.7 642.8 522.3C685.7 517 728.3 509 771.2 509.8C814 510.7 857 520.3 878.5 525.2L900 530L900 601L878.5 601C857 601 814 601 771.2 601C728.3 601 685.7 601 642.8 601C600 601 557 601 514.2 601C471.3 601 428.7 601 385.8 601C343 601 300 601 257.2 601C214.3 601 171.7 601 128.8 601C86 601 43 601 21.5 601L0 601Z" fill="#979797"></path><path d="M0 560L21.5 556.5C43 553 86 546 128.8 543.3C171.7 540.7 214.3 542.3 257.2 545.8C300 549.3 343 554.7 385.8 553.7C428.7 552.7 471.3 545.3 514.2 541.8C557 538.3 600 538.7 642.8 541.7C685.7 544.7 728.3 550.3 771.2 550C814 549.7 857 543.3 878.5 540.2L900 537L900 601L878.5 601C857 601 814 601 771.2 601C728.3 601 685.7 601 642.8 601C600 601 557 601 514.2 601C471.3 601 428.7 601 385.8 601C343 601 300 601 257.2 601C214.3 601 171.7 601 128.8 601C86 601 43 601 21.5 601L0 601Z" fill="#000000"></path></svg>