<svg id="visual" viewBox="0 0 960 300" width="960" height="300" xmlns="http://www.w3.org/2000/svg" xmlns:xlink="http://www.w3.org/1999/xlink" version="1.1">
    <path d="M0 215L137 201L274 215L411 195L549 221L686 215L823 204L960 175L960 301L823 301L686 301L549 301L411 301L274 301L137 301L0 301Z" fill="#5590b4"></path>
    <path d="M0 204L137 204L274 231L411 210L549 216L686 204L823 222L960 206L960 301L823 301L686 301L549 301L411 301L274 301L137 301L0 301Z" fill="#3d7692"></path>
    <path d="M0 245L137 246L274 232L411 232L549 241L686 218L823 221L960 231L960 301L823 301L686 301L549 301L411 301L274 301L137 301L0 301Z" fill="#275c71"></path>
    <path d="M0 243L137 262L274 265L411 259L549 265L686 252L823 258L960 263L960 301L823 301L686 301L549 301L411 301L274 301L137 301L0 301Z" fill="#124352"></path>
    <path d="M0 266L137 285L274 286L411 272L549 269L686 263L823 274L960 275L960 301L823 301L686 301L549 301L411 301L274 301L137 301L0 301Z" fill="#002b36"></path>
</svg>