<svg id="visual" viewBox="0 0 960 300" width="960" height="300" xmlns="http://www.w3.org/2000/svg" xmlns:xlink="http://www.w3.org/1999/xlink" version="1.1"><g stroke-width="1" stroke-linejoin="bevel"><path d="M440.4 102L412.4 0L380.1 55Z" fill="#002b36" stroke="#002b36"></path><path d="M440.4 102L504.6 39L412.4 0Z" fill="#002b36" stroke="#002b36"></path><path d="M412.4 0L356.1 0L380.1 55Z" fill="#2f667e" stroke="#2f667e"></path><path d="M584.9 0L556.6 0L639.9 98Z" fill="#002b36" stroke="#002b36"></path><path d="M504.6 39L556.6 0L412.4 0Z" fill="#063441" stroke="#063441"></path><path d="M311.1 177L380.1 176L380.1 55Z" fill="#0e3e4d" stroke="#0e3e4d"></path><path d="M380.1 55L380.1 176L440.4 102Z" fill="#275c71" stroke="#275c71"></path><path d="M440.4 102L542.6 157L504.6 39Z" fill="#002b36" stroke="#002b36"></path><path d="M380.1 176L397.4 182L440.4 102Z" fill="#063441" stroke="#063441"></path><path d="M397.4 182L542.6 157L440.4 102Z" fill="#5590b4" stroke="#5590b4"></path><path d="M639.9 98L556.6 0L504.6 39Z" fill="#164858" stroke="#164858"></path><path d="M356.1 0L279.8 0L380.1 55Z" fill="#002b36" stroke="#002b36"></path><path d="M369.1 300L430.4 259L397.4 182Z" fill="#164858" stroke="#164858"></path><path d="M224.8 70L311.1 177L380.1 55Z" fill="#002b36" stroke="#002b36"></path><path d="M483.6 300L568.6 184L542.6 157Z" fill="#2f667e" stroke="#2f667e"></path><path d="M542.6 157L639.9 98L504.6 39Z" fill="#0e3e4d" stroke="#0e3e4d"></path><path d="M591.9 176L600.9 152L542.6 157Z" fill="#4b85a6" stroke="#4b85a6"></path><path d="M568.6 184L591.9 176L542.6 157Z" fill="#063441" stroke="#063441"></path><path d="M279.8 0L224.8 70L380.1 55Z" fill="#002b36" stroke="#002b36"></path><path d="M409.4 300L430.4 259L369.1 300Z" fill="#002b36" stroke="#002b36"></path><path d="M397.4 182L430.4 259L542.6 157Z" fill="#38708b" stroke="#38708b"></path><path d="M568.6 184L631.9 300L591.9 176Z" fill="#4b85a6" stroke="#4b85a6"></path><path d="M741.2 109L639.9 98L720.2 183Z" fill="#1f5265" stroke="#1f5265"></path><path d="M600.9 152L639.9 98L542.6 157Z" fill="#164858" stroke="#164858"></path><path d="M639.9 98L649.2 46L584.9 0Z" fill="#0e3e4d" stroke="#0e3e4d"></path><path d="M224.8 70L229.8 169L311.1 177Z" fill="#063441" stroke="#063441"></path><path d="M369.1 300L397.4 182L380.1 176Z" fill="#063441" stroke="#063441"></path><path d="M279.8 0L199.5 0L224.8 70Z" fill="#164858" stroke="#164858"></path><path d="M224.8 70L154.5 66L229.8 169Z" fill="#063441" stroke="#063441"></path><path d="M369.1 300L380.1 176L311.1 177Z" fill="#4b85a6" stroke="#4b85a6"></path><path d="M430.4 259L483.6 300L542.6 157Z" fill="#0e3e4d" stroke="#0e3e4d"></path><path d="M409.4 300L483.6 300L430.4 259Z" fill="#002b36" stroke="#002b36"></path><path d="M766.5 44L687.2 0L649.2 46Z" fill="#0e3e4d" stroke="#0e3e4d"></path><path d="M649.2 46L687.2 0L584.9 0Z" fill="#1f5265" stroke="#1f5265"></path><path d="M261.8 300L369.1 300L311.1 177Z" fill="#002b36" stroke="#002b36"></path><path d="M199.5 0L154.5 66L224.8 70Z" fill="#002b36" stroke="#002b36"></path><path d="M229.8 169L229.8 254L311.1 177Z" fill="#1f5265" stroke="#1f5265"></path><path d="M211.5 260L229.8 254L229.8 169Z" fill="#002b36" stroke="#002b36"></path><path d="M229.8 254L261.8 300L311.1 177Z" fill="#164858" stroke="#164858"></path><path d="M138.5 180L211.5 260L229.8 169Z" fill="#063441" stroke="#063441"></path><path d="M229.8 254L211.5 260L261.8 300Z" fill="#5590b4" stroke="#5590b4"></path><path d="M720.2 183L639.9 98L600.9 152Z" fill="#164858" stroke="#164858"></path><path d="M639.9 98L741.2 109L649.2 46Z" fill="#1f5265" stroke="#1f5265"></path><path d="M720.2 183L600.9 152L591.9 176Z" fill="#417b98" stroke="#417b98"></path><path d="M631.9 300L720.2 183L591.9 176Z" fill="#063441" stroke="#063441"></path><path d="M483.6 300L631.9 300L568.6 184Z" fill="#4b85a6" stroke="#4b85a6"></path><path d="M154.5 66L138.5 180L229.8 169Z" fill="#0e3e4d" stroke="#0e3e4d"></path><path d="M741.2 109L766.5 44L649.2 46Z" fill="#275c71" stroke="#275c71"></path><path d="M812.5 117L766.5 44L741.2 109Z" fill="#1f5265" stroke="#1f5265"></path><path d="M78.3 100L121.3 192L138.5 180Z" fill="#0e3e4d" stroke="#0e3e4d"></path><path d="M138.5 180L121.3 192L211.5 260Z" fill="#275c71" stroke="#275c71"></path><path d="M211.5 260L142.5 300L261.8 300Z" fill="#4b85a6" stroke="#4b85a6"></path><path d="M766.5 44L777.5 0L687.2 0Z" fill="#38708b" stroke="#38708b"></path><path d="M62.3 0L78.3 100L154.5 66Z" fill="#275c71" stroke="#275c71"></path><path d="M154.5 66L78.3 100L138.5 180Z" fill="#0e3e4d" stroke="#0e3e4d"></path><path d="M199.5 0L62.3 0L154.5 66Z" fill="#164858" stroke="#164858"></path><path d="M631.9 300L717.2 300L720.2 183Z" fill="#5590b4" stroke="#5590b4"></path><path d="M720.2 183L812.5 117L741.2 109Z" fill="#164858" stroke="#164858"></path><path d="M766.5 44L856.7 0L777.5 0Z" fill="#2f667e" stroke="#2f667e"></path><path d="M91.3 300L142.5 300L121.3 192Z" fill="#1f5265" stroke="#1f5265"></path><path d="M121.3 192L142.5 300L211.5 260Z" fill="#164858" stroke="#164858"></path><path d="M809.5 210L812.5 117L720.2 183Z" fill="#38708b" stroke="#38708b"></path><path d="M62.3 0L46.3 92L78.3 100Z" fill="#1f5265" stroke="#1f5265"></path><path d="M78.3 100L0 172L121.3 192Z" fill="#417b98" stroke="#417b98"></path><path d="M717.2 300L809.5 210L720.2 183Z" fill="#2f667e" stroke="#2f667e"></path><path d="M0 266L91.3 300L121.3 192Z" fill="#275c71" stroke="#275c71"></path><path d="M874.7 116L856.7 0L812.5 117Z" fill="#275c71" stroke="#275c71"></path><path d="M812.5 117L856.7 0L766.5 44Z" fill="#1f5265" stroke="#1f5265"></path><path d="M62.3 0L0 47L46.3 92Z" fill="#0e3e4d" stroke="#0e3e4d"></path><path d="M46.3 92L0 172L78.3 100Z" fill="#5590b4" stroke="#5590b4"></path><path d="M62.3 0L0 0L0 47Z" fill="#2f667e" stroke="#2f667e"></path><path d="M875.7 130L874.7 116L812.5 117Z" fill="#2f667e" stroke="#2f667e"></path><path d="M809.5 210L875.7 130L812.5 117Z" fill="#4b85a6" stroke="#4b85a6"></path><path d="M0 47L0 172L46.3 92Z" fill="#164858" stroke="#164858"></path><path d="M717.2 300L822.5 300L809.5 210Z" fill="#38708b" stroke="#38708b"></path><path d="M809.5 210L895.7 220L875.7 130Z" fill="#002b36" stroke="#002b36"></path><path d="M0 172L0 266L121.3 192Z" fill="#2f667e" stroke="#2f667e"></path><path d="M822.5 300L850.7 300L809.5 210Z" fill="#002b36" stroke="#002b36"></path><path d="M850.7 300L895.7 220L809.5 210Z" fill="#417b98" stroke="#417b98"></path><path d="M875.7 130L960 66L874.7 116Z" fill="#275c71" stroke="#275c71"></path><path d="M874.7 116L960 66L856.7 0Z" fill="#164858" stroke="#164858"></path><path d="M0 266L0 300L91.3 300Z" fill="#0e3e4d" stroke="#0e3e4d"></path><path d="M960 172L960 66L875.7 130Z" fill="#063441" stroke="#063441"></path><path d="M960 66L960 0L856.7 0Z" fill="#002b36" stroke="#002b36"></path><path d="M895.7 220L960 172L875.7 130Z" fill="#002b36" stroke="#002b36"></path><path d="M960 253L960 172L895.7 220Z" fill="#4b85a6" stroke="#4b85a6"></path><path d="M960 300L960 253L895.7 220Z" fill="#275c71" stroke="#275c71"></path><path d="M850.7 300L960 300L895.7 220Z" fill="#1f5265" stroke="#1f5265"></path></g></svg>