<svg id="visual" viewBox="0 0 960 300" width="960" height="300" xmlns="http://www.w3.org/2000/svg" xmlns:xlink="http://www.w3.org/1999/xlink" version="1.1"><path d="M0 186L22.8 186.8C45.7 187.7 91.3 189.3 137 194.7C182.7 200 228.3 209 274 207.8C319.7 206.7 365.3 195.3 411.2 190.7C457 186 503 188 548.8 192.5C594.7 197 640.3 204 686 202.8C731.7 201.7 777.3 192.3 823 189C868.7 185.7 914.3 188.3 937.2 189.7L960 191L960 301L937.2 301C914.3 301 868.7 301 823 301C777.3 301 731.7 301 686 301C640.3 301 594.7 301 548.8 301C503 301 457 301 411.2 301C365.3 301 319.7 301 274 301C228.3 301 182.7 301 137 301C91.3 301 45.7 301 22.8 301L0 301Z" fill="#000000"></path><path d="M0 212L22.8 212.5C45.7 213 91.3 214 137 217C182.7 220 228.3 225 274 228C319.7 231 365.3 232 411.2 228.3C457 224.7 503 216.3 548.8 215.5C594.7 214.7 640.3 221.3 686 225.2C731.7 229 777.3 230 823 230.7C868.7 231.3 914.3 231.7 937.2 231.8L960 232L960 301L937.2 301C914.3 301 868.7 301 823 301C777.3 301 731.7 301 686 301C640.3 301 594.7 301 548.8 301C503 301 457 301 411.2 301C365.3 301 319.7 301 274 301C228.3 301 182.7 301 137 301C91.3 301 45.7 301 22.8 301L0 301Z" fill="#979797"></path><path d="M0 245L22.8 242.8C45.7 240.7 91.3 236.3 137 236.7C182.7 237 228.3 242 274 241C319.7 240 365.3 233 411.2 234.2C457 235.3 503 244.7 548.8 247C594.7 249.3 640.3 244.7 686 239.8C731.7 235 777.3 230 823 227.8C868.7 225.7 914.3 226.3 937.2 226.7L960 227L960 301L937.2 301C914.3 301 868.7 301 823 301C777.3 301 731.7 301 686 301C640.3 301 594.7 301 548.8 301C503 301 457 301 411.2 301C365.3 301 319.7 301 274 301C228.3 301 182.7 301 137 301C91.3 301 45.7 301 22.8 301L0 301Z" fill="#ffffff1f"></path><path d="M0 254L22.8 255.7C45.7 257.3 91.3 260.7 137 261.3C182.7 262 228.3 260 274 259.8C319.7 259.7 365.3 261.3 411.2 262.7C457 264 503 265 548.8 264.8C594.7 264.7 640.3 263.3 686 260.7C731.7 258 777.3 254 823 254.5C868.7 255 914.3 260 937.2 262.5L960 265L960 301L937.2 301C914.3 301 868.7 301 823 301C777.3 301 731.7 301 686 301C640.3 301 594.7 301 548.8 301C503 301 457 301 411.2 301C365.3 301 319.7 301 274 301C228.3 301 182.7 301 137 301C91.3 301 45.7 301 22.8 301L0 301Z" fill="#979797"></path><path d="M0 279L22.8 277.3C45.7 275.7 91.3 272.3 137 271C182.7 269.7 228.3 270.3 274 272.2C319.7 274 365.3 277 411.2 276.7C457 276.3 503 272.7 548.8 270.8C594.7 269 640.3 269 686 270.3C731.7 271.7 777.3 274.3 823 274.2C868.7 274 914.3 271 937.2 269.5L960 268L960 301L937.2 301C914.3 301 868.7 301 823 301C777.3 301 731.7 301 686 301C640.3 301 594.7 301 548.8 301C503 301 457 301 411.2 301C365.3 301 319.7 301 274 301C228.3 301 182.7 301 137 301C91.3 301 45.7 301 22.8 301L0 301Z" fill="#000000"></path></svg>