<svg xmlns="http://www.w3.org/2000/svg" viewBox="7 7 394 154">
  <path
    d="M 160 16 # m 160 16 # 1
C 160 8 168 8 176 8
L 264 8
C 280 8 280 16 280 16
L 280 40
C 280 40 280 56 280 48
L 240 88
L 264 88
C 272 88 280 88 280 96
L 280 120
C 280 128 272 128 264 128
L 176 128
C 168 128 160 128 160 120
L 160 88
L 200 48
L 176 48
C 160 48 160 40 160 40
Z
M 160 16 # m 0 0 # 2
C 160 8 152 8 144 8
L 56 8
C 48 8 40 8 40 16
L 40 120
C 40 128 48 128 56 128
L 144 128
C 152 128 160 128 160 120
L 160 96
C 160 88 152 88 144 88
L 96 88
C 80 88 80 80 80 80
L 80 56
C 80 56 80 48 96 48
L 144 48
C 152 48 160 48 160 40
Z
M 400 56 # m 240 40 # 3
Z
L 400 16
C 400 8 392 8 384 8
L 296 8
C 280 8 280 16 280 16
L 280 120
C 280 128 288 128 296 128
L 384 128
C 392 128 400 128 400 120
L 400 56
C 400 48 392 48 384 48
L 336 48
C 328 48 320 48 320 56
L 320 80
C 320 88 328 88 336 88
L 360 88
M 40 16 # m -320 -72 # 4
L 8 48
L 8 152
C 8 160 16 160 24 160
L 120 160
L 152 128
L 56 128
C 48 128 40 128 40 120
Z
M 272 128 # m 232 112 # 5
L 240 160
L 144 160
C 136 160 128 160 128 152
L 152 128
Z
M 392 128 # m 120 0 # 6
L 360 160
L 264 160
C 256 160 248 160 248 152
L 272 128
Z
M 280 88 # m -112 -40 # 7
L 240 88
L 280 48
Z
M 152 48 # m -128 -40 # 8
L 120 80
L 80 80
L 80 56
C 80 48 96 48 96 48
Z
M 200 48 # m 48 0 # 9
L 152 48
L 128 72
C 128 80 136 80 144 80
L 168 80
Z"
    stroke ="#ffffff"
    fill = "none"
    stroke-width= "2"
    />
</svg>