<?xml version="1.0" encoding="UTF-8" standalone="no"?>
<!-- Created with Inkscape (http://www.inkscape.org/) -->
<svg xmlns:dc="http://purl.org/dc/elements/1.1/" xmlns:cc="http://creativecommons.org/ns#" xmlns:rdf="http://www.w3.org/1999/02/22-rdf-syntax-ns#" xmlns:svg="http://www.w3.org/2000/svg" xmlns="http://www.w3.org/2000/svg" xmlns:sodipodi="http://sodipodi.sourceforge.net/DTD/sodipodi-0.dtd" xmlns:inkscape="http://www.inkscape.org/namespaces/inkscape" version="1.1" width="210mm" height="297mm" viewBox="0 0 21000 29700" id="svg3587" xml:space="preserve" style="fill-rule:evenodd" inkscape:version="0.48.2 r9819" sodipodi:docname="celtic_repeating_geometric_pattern.svg"><sodipodi:namedview pagecolor="#ffffff" bordercolor="#666666" borderopacity="1" objecttolerance="10" gridtolerance="10" guidetolerance="10" inkscape:pageopacity="0" inkscape:pageshadow="2" inkscape:window-width="1920" inkscape:window-height="1018" id="namedview3599" showgrid="false" inkscape:zoom="0.63429569" inkscape:cx="806.11765" inkscape:cy="549.1173" inkscape:window-x="-8" inkscape:window-y="-8" inkscape:window-maximized="1" inkscape:current-layer="svg3587"/>
 <defs id="defs3589">
  <style type="text/css" id="style3591"/>
 
  
  
  
  
  
  
  
  
  
  
  
  
  
  
  
  
  
  
  
  
  
  
  
  
  
  
  
  
  
  
  
  
  
  
  
  
  
  
  
  
  
  
  
  
  
  
  
  
  
  
  
  
  
  
  
  
  
  
  
  
  
  
  
  
  
  
  
  
  
  
  
  
  
  
  
  
  
  
  
  
  
  
  
  
  
  
  
  
  
  
  
  
  
  
  
  
  
  
  
  
  
  
  
  
  
  
  
  
  
  
  
  
  
  
  
  
  
  
  
  
  
  
  
  
  
  
  
  
  
  
  
  
  
  
  
  
  
  
  
  
  
  
  
  
  
  
  
  
  
  
  
  
  
  
  
  
  
  
  
  
  
  
  
  
  
  
  
  
  
  
  
  
  
  
  
  
  
  
  
  
  
  
  
  
 </defs>
 <path inkscape:connector-curvature="0" style="fill:#000000;stroke:#000000;stroke-width:7.61999989" id="path3817" d="M 1429,4307 C 1892,4182 2298,3937 2617,3611 C 2287,3274 1876,3036 1429,2915 C 1303,3374 1305,3855 1429,4307 z"/><path inkscape:connector-curvature="0" style="fill:#000000;stroke:#000000;stroke-width:7.61999989" id="path3819" d="M 3273,6144 C 3397,5692 3399,5211 3273,4752 C 2826,4873 2415,5111 2085,5448 C 2409,5779 2818,6021 3273,6144 z"/><path inkscape:connector-curvature="0" style="fill:#000000;stroke:#000000;stroke-width:7.61999989" id="path3821" d="M 5833,5448 C 5503,5111 5092,4873 4645,4752 C 4519,5211 4521,5692 4645,6144 C 5100,6021 5509,5779 5833,5448 z"/><path inkscape:connector-curvature="0" style="fill:#000000;stroke:#000000;stroke-width:7.61999989" id="path3823" d="M 6489,4307 C 6613,3855 6615,3374 6489,2915 C 6042,3036 5631,3274 5301,3611 C 5620,3937 6026,4181 6489,4307 z"/><path inkscape:connector-curvature="0" style="fill:#000000;stroke:#000000;stroke-width:7.61999989" id="path3825" d="M 9049,3611 C 8719,3274 8308,3036 7861,2915 C 7735,3374 7737,3855 7861,4307 C 8324,4182 8730,3937 9049,3611 z"/><path inkscape:connector-curvature="0" style="fill:#000000;stroke:#000000;stroke-width:7.61999989" id="path3827" d="M 9705,4752 C 9258,4873 8847,5111 8517,5448 C 8841,5779 9250,6021 9705,6144 C 9829,5692 9831,5211 9705,4752 z"/><path inkscape:connector-curvature="0" style="fill:#000000;stroke:#000000;stroke-width:7.61999989" id="path3829" d="M 9049,7285 C 8719,6948 8308,6710 7861,6589 C 7735,7048 7737,7529 7861,7981 C 8316,7858 8725,7616 9049,7285 z"/><path inkscape:connector-curvature="0" style="fill:#000000;stroke:#000000;stroke-width:7.61999989" id="path3831" d="M 6489,7981 C 6613,7529 6615,7048 6489,6589 C 6042,6710 5631,6948 5301,7285 C 5625,7616 6034,7858 6489,7981 z"/><path inkscape:connector-curvature="0" style="fill:#000000;stroke:#000000;stroke-width:7.61999989" id="path3833" d="M 5833,9122 C 5503,8785 5092,8547 4645,8426 C 4519,8885 4521,9366 4645,9818 C 5100,9695 5509,9453 5833,9122 z"/><path inkscape:connector-curvature="0" style="fill:#000000;stroke:#000000;stroke-width:7.61999989" id="path3835" d="M 3273,9818 C 3397,9366 3399,8885 3273,8426 C 2826,8547 2415,8785 2085,9122 C 2409,9453 2818,9695 3273,9818 z"/><path inkscape:connector-curvature="0" style="fill:#000000;stroke:#000000;stroke-width:7.61999989" id="path3837" d="M 2617,7285 C 2287,6948 1876,6710 1429,6589 C 1303,7048 1305,7529 1429,7981 C 1884,7858 2293,7616 2617,7285 z"/><path inkscape:connector-curvature="0" style="fill:#000000;stroke:#000000;stroke-width:7.61999989" id="path3839" d="M 2617,10958 C 2287,10621 1876,10383 1429,10262 C 1303,10721 1305,11202 1429,11654 C 1884,11531 2293,11289 2617,10958 z"/><path inkscape:connector-curvature="0" style="fill:#000000;stroke:#000000;stroke-width:7.61999989" id="path3841" d="M 3273,13491 C 3397,13039 3399,12558 3273,12099 C 2826,12220 2415,12458 2085,12795 C 2409,13126 2818,13368 3273,13491 z"/><path inkscape:connector-curvature="0" style="fill:#000000;stroke:#000000;stroke-width:7.61999989" id="path3843" d="M 5833,12795 C 5503,12458 5092,12220 4645,12099 C 4519,12558 4521,13039 4645,13491 C 5100,13368 5509,13126 5833,12795 z"/><path inkscape:connector-curvature="0" style="fill:#000000;stroke:#000000;stroke-width:7.61999989" id="path3845" d="M 6489,11654 C 6613,11202 6615,10721 6489,10262 C 6042,10383 5631,10621 5301,10958 C 5625,11289 6034,11531 6489,11654 z"/><path inkscape:connector-curvature="0" style="fill:#000000;stroke:#000000;stroke-width:7.61999989" id="path3847" d="M 9049,10958 C 8719,10621 8308,10383 7861,10262 C 7735,10721 7737,11202 7861,11654 C 8316,11531 8725,11289 9049,10958 z"/><path inkscape:connector-curvature="0" style="fill:#000000;stroke:#000000;stroke-width:7.61999989" id="path3849" d="M 9705,8426 C 9258,8547 8847,8785 8517,9122 C 8841,9453 9250,9695 9705,9818 C 9829,9366 9831,8885 9705,8426 z"/><path inkscape:connector-curvature="0" style="fill:#000000;stroke:#000000;stroke-width:7.61999989" id="path3851" d="M 2617,14632 C 2287,14295 1876,14057 1429,13936 C 1303,14395 1305,14876 1429,15328 C 1884,15205 2293,14963 2617,14632 z"/><path inkscape:connector-curvature="0" style="fill:#000000;stroke:#000000;stroke-width:7.61999989" id="path3853" d="M 3273,17165 C 3397,16713 3399,16232 3273,15773 C 2826,15894 2415,16132 2085,16469 C 2409,16800 2818,17042 3273,17165 z"/><path inkscape:connector-curvature="0" style="fill:#000000;stroke:#000000;stroke-width:7.61999989" id="path3855" d="M 5833,16469 C 5503,16132 5092,15894 4645,15773 C 4519,16232 4521,16713 4645,17165 C 5100,17042 5509,16800 5833,16469 z"/><path inkscape:connector-curvature="0" style="fill:#000000;stroke:#000000;stroke-width:7.61999989" id="path3857" d="M 6489,13936 C 6042,14057 5631,14295 5301,14632 C 5625,14963 6034,15205 6489,15328 C 6613,14876 6615,14395 6489,13936 z"/><path inkscape:connector-curvature="0" style="fill:#000000;stroke:#000000;stroke-width:7.61999989" id="path3859" d="M 5833,20143 C 5503,19806 5092,19568 4645,19447 C 4583,19674 4551,19908 4551,20143 L 5833,20143 z"/><path inkscape:connector-curvature="0" style="fill:#000000;stroke:#000000;stroke-width:7.61999989" id="path3861" d="M 3367,20143 C 3367,19908 3335,19674 3273,19447 C 2826,19568 2415,19806 2085,20143 L 3367,20143 z"/><path inkscape:connector-curvature="0" style="fill:#000000;stroke:#000000;stroke-width:7.61999989" id="path3863" d="M 2617,18306 C 2287,17969 1876,17731 1429,17610 C 1302,18073 1306,18554 1429,19002 C 1884,18879 2293,18637 2617,18306 z"/><path inkscape:connector-curvature="0" style="fill:#000000;stroke:#000000;stroke-width:7.61999989" id="path3865" d="M 6489,17610 C 6042,17731 5631,17969 5301,18306 C 5625,18637 6034,18879 6489,19002 C 6612,18554 6616,18074 6489,17610 z"/><path inkscape:connector-curvature="0" style="fill:#000000;stroke:#000000;stroke-width:7.61999989" id="path3867" d="M 9049,18306 C 8719,17969 8308,17731 7861,17610 C 7734,18073 7738,18554 7861,19002 C 8316,18879 8725,18637 9049,18306 z"/><path inkscape:connector-curvature="0" style="fill:#000000;stroke:#000000;stroke-width:7.61999989" id="path3869" d="M 9705,19447 C 9258,19568 8847,19806 8517,20143 L 9799,20143 C 9799,19908 9767,19674 9705,19447 z"/><path inkscape:connector-curvature="0" style="fill:#000000;stroke:#000000;stroke-width:7.61999989" id="path3871" d="M 12265,20143 C 11935,19806 11524,19568 11077,19447 C 11015,19674 10983,19908 10983,20143 L 12265,20143 z"/><path inkscape:connector-curvature="0" style="fill:#000000;stroke:#000000;stroke-width:7.61999989" id="path3873" d="M 12921,17610 C 12474,17731 12063,17969 11733,18306 C 12057,18637 12466,18879 12921,19002 C 13044,18554 13048,18074 12921,17610 z"/><path inkscape:connector-curvature="0" style="fill:#000000;stroke:#000000;stroke-width:7.61999989" id="path3875" d="M 12265,16469 C 11935,16132 11524,15894 11077,15773 C 10951,16232 10953,16713 11077,17165 C 11532,17042 11941,16800 12265,16469 z"/><path inkscape:connector-curvature="0" style="fill:#000000;stroke:#000000;stroke-width:7.61999989" id="path3877" d="M 9705,15773 C 9258,15894 8847,16132 8517,16469 C 8841,16800 9250,17042 9705,17165 C 9829,16713 9831,16232 9705,15773 z"/><path inkscape:connector-curvature="0" style="fill:#000000;stroke:#000000;stroke-width:7.61999989" id="path3879" d="M 9049,14632 C 8719,14295 8308,14057 7861,13936 C 7735,14395 7737,14876 7861,15328 C 8316,15205 8725,14963 9049,14632 z"/><path inkscape:connector-curvature="0" style="fill:#000000;stroke:#000000;stroke-width:7.61999989" id="path3881" d="M 9705,12099 C 9258,12220 8847,12458 8517,12795 C 8841,13126 9250,13368 9705,13491 C 9829,13039 9831,12558 9705,12099 z"/><path inkscape:connector-curvature="0" style="fill:#000000;stroke:#000000;stroke-width:7.61999989" id="path3883" d="M 12265,12795 C 11935,12458 11524,12220 11077,12099 C 10951,12558 10953,13039 11077,13491 C 11532,13368 11941,13126 12265,12795 z"/><path inkscape:connector-curvature="0" style="fill:#000000;stroke:#000000;stroke-width:7.61999989" id="path3885" d="M 12921,13936 C 12474,14057 12063,14295 11733,14632 C 12057,14963 12466,15205 12921,15328 C 13045,14876 13047,14395 12921,13936 z"/><path inkscape:connector-curvature="0" style="fill:#000000;stroke:#000000;stroke-width:7.61999989" id="path3887" d="M 16137,19447 C 15690,19568 15279,19806 14949,20143 L 16231,20143 C 16231,19908 16199,19674 16137,19447 z"/><path inkscape:connector-curvature="0" style="fill:#000000;stroke:#000000;stroke-width:7.61999989" id="path3889" d="M 18697,20143 C 18367,19806 17956,19568 17509,19447 C 17447,19674 17415,19908 17415,20143 L 18697,20143 z"/><path inkscape:connector-curvature="0" style="fill:#000000;stroke:#000000;stroke-width:7.61999989" id="path3891" d="M 19353,17610 C 18906,17731 18495,17969 18165,18306 C 18489,18637 18898,18879 19353,19002 C 19476,18554 19480,18074 19353,17610 z"/><path inkscape:connector-curvature="0" style="fill:#000000;stroke:#000000;stroke-width:7.61999989" id="path3893" d="M 18697,16469 C 18367,16132 17956,15894 17509,15773 C 17383,16232 17385,16713 17509,17165 C 17964,17042 18373,16800 18697,16469 z"/><path inkscape:connector-curvature="0" style="fill:#000000;stroke:#000000;stroke-width:7.61999989" id="path3895" d="M 16137,15773 C 15690,15894 15279,16132 14949,16469 C 15273,16800 15682,17042 16137,17165 C 16261,16713 16263,16232 16137,15773 z"/><path inkscape:connector-curvature="0" style="fill:#000000;stroke:#000000;stroke-width:7.61999989" id="path3897" d="M 15481,18306 C 15151,17969 14740,17731 14293,17610 C 14166,18073 14170,18554 14293,19002 C 14748,18879 15157,18637 15481,18306 z"/><path inkscape:connector-curvature="0" style="fill:#000000;stroke:#000000;stroke-width:7.61999989" id="path3899" d="M 15481,14632 C 15151,14295 14740,14057 14293,13936 C 14167,14395 14169,14876 14293,15328 C 14748,15205 15157,14963 15481,14632 z"/><path inkscape:connector-curvature="0" style="fill:#000000;stroke:#000000;stroke-width:7.61999989" id="path3901" d="M 19353,13936 C 18906,14057 18495,14295 18165,14632 C 18489,14963 18898,15205 19353,15328 C 19477,14876 19479,14395 19353,13936 z"/><path inkscape:connector-curvature="0" style="fill:#000000;stroke:#000000;stroke-width:7.61999989" id="path3903" d="M 17509,12099 C 17383,12558 17385,13039 17509,13491 C 17964,13368 18373,13126 18697,12795 C 18367,12458 17956,12220 17509,12099 z"/><path inkscape:connector-curvature="0" style="fill:#000000;stroke:#000000;stroke-width:7.61999989" id="path3905" d="M 16137,12099 C 15690,12220 15279,12458 14949,12795 C 15273,13126 15682,13368 16137,13491 C 16261,13039 16263,12558 16137,12099 z"/><path inkscape:connector-curvature="0" style="fill:#000000;stroke:#000000;stroke-width:7.61999989" id="path3907" d="M 15481,10958 C 15151,10621 14740,10383 14293,10262 C 14167,10721 14169,11202 14293,11654 C 14748,11531 15157,11289 15481,10958 z"/><path inkscape:connector-curvature="0" style="fill:#000000;stroke:#000000;stroke-width:7.61999989" id="path3909" d="M 19353,10262 C 18906,10383 18495,10621 18165,10958 C 18489,11289 18898,11531 19353,11654 C 19477,11202 19479,10721 19353,10262 z"/><path inkscape:connector-curvature="0" style="fill:#000000;stroke:#000000;stroke-width:7.61999989" id="path3911" d="M 12921,10263 C 12474,10384 12063,10622 11733,10959 C 12057,11290 12466,11532 12921,11655 C 13045,11203 13047,10722 12921,10263 z"/><path inkscape:connector-curvature="0" style="fill:#000000;stroke:#000000;stroke-width:7.61999989" id="path3913" d="M 12265,9122 C 11935,8785 11524,8547 11077,8426 C 10951,8885 10953,9366 11077,9818 C 11532,9695 11941,9453 12265,9122 z"/><path inkscape:connector-curvature="0" style="fill:#000000;stroke:#000000;stroke-width:7.61999989" id="path3915" d="M 12921,6589 C 12474,6710 12063,6948 11733,7285 C 12057,7616 12466,7858 12921,7981 C 13045,7529 13047,7048 12921,6589 z"/><path inkscape:connector-curvature="0" style="fill:#000000;stroke:#000000;stroke-width:7.61999989" id="path3917" d="M 15481,7285 C 15151,6948 14740,6710 14293,6589 C 14167,7048 14169,7529 14293,7981 C 14748,7858 15157,7616 15481,7285 z"/><path inkscape:connector-curvature="0" style="fill:#000000;stroke:#000000;stroke-width:7.61999989" id="path3919" d="M 16137,8426 C 15690,8547 15279,8785 14949,9122 C 15273,9453 15682,9695 16137,9818 C 16261,9366 16263,8885 16137,8426 z"/><path inkscape:connector-curvature="0" style="fill:#000000;stroke:#000000;stroke-width:7.61999989" id="path3921" d="M 17509,8426 C 17383,8885 17385,9366 17509,9818 C 17964,9695 18373,9453 18697,9122 C 18367,8785 17956,8547 17509,8426 z"/><path inkscape:connector-curvature="0" style="fill:#000000;stroke:#000000;stroke-width:7.61999989" id="path3923" d="M 19353,6589 C 18906,6710 18495,6948 18165,7285 C 18489,7616 18898,7858 19353,7981 C 19477,7529 19479,7048 19353,6589 z"/><path inkscape:connector-curvature="0" style="fill:#000000;stroke:#000000;stroke-width:7.61999989" id="path3925" d="M 17509,4752 C 17383,5211 17385,5692 17509,6144 C 17964,6021 18373,5779 18697,5448 C 18367,5111 17956,4873 17509,4752 z"/><path inkscape:connector-curvature="0" style="fill:#000000;stroke:#000000;stroke-width:7.61999989" id="path3927" d="M 16137,4752 C 15690,4873 15279,5111 14949,5448 C 15273,5779 15682,6021 16137,6144 C 16261,5692 16263,5211 16137,4752 z"/><path inkscape:connector-curvature="0" style="fill:#000000;stroke:#000000;stroke-width:7.61999989" id="path3929" d="M 12265,5448 C 11935,5111 11524,4873 11077,4752 C 10951,5211 10953,5692 11077,6144 C 11532,6021 11941,5779 12265,5448 z"/><path inkscape:connector-curvature="0" style="fill:#000000;stroke:#000000;stroke-width:7.61999989" id="path3931" d="M 12921,2915 C 12474,3036 12063,3274 11733,3611 C 12052,3937 12458,4181 12921,4307 C 13045,3855 13047,3374 12921,2915 z"/><path inkscape:connector-curvature="0" style="fill:#000000;stroke:#000000;stroke-width:7.61999989" id="path3933" d="M 14293,2915 C 14167,3374 14169,3855 14293,4307 C 14756,4182 15162,3937 15481,3611 C 15151,3274 14740,3036 14293,2915 z"/><path inkscape:connector-curvature="0" style="fill:#000000;stroke:#000000;stroke-width:7.61999989" id="path3935" d="M 19353,2915 C 18906,3036 18495,3274 18165,3611 C 18484,3937 18890,4181 19353,4307 C 19477,3855 19479,3374 19353,2915 z"/><path inkscape:connector-curvature="0" style="fill:none;stroke:#000000;stroke-width:20" id="path3937" d="M 3273,2470 C 3273,2470 3273,2470 3273,2470"/><path inkscape:connector-curvature="0" style="fill:#000000;stroke:#000000;stroke-width:7.61999989" id="path3939" d="M 3273,2470 C 3334,2247 3367,2014 3367,1774 L 2085,1774 C 2412,2108 2822,2348 3273,2470 L 3273,2470 z"/><path inkscape:connector-curvature="0" style="fill:none;stroke:#000000;stroke-width:20" id="path3941" d="M 4645,2470 C 4645,2470 4645,2470 4645,2470"/><path inkscape:connector-curvature="0" style="fill:none;stroke:#000000;stroke-width:20" id="path3943" d="M 9705,2470 C 9705,2470 9705,2470 9705,2470"/><path inkscape:connector-curvature="0" style="fill:none;stroke:#000000;stroke-width:20" id="path3945" d="M 11077,2470 C 11077,2470 11077,2470 11077,2470"/><path inkscape:connector-curvature="0" style="fill:none;stroke:#000000;stroke-width:20" id="path3947" d="M 17509,2470 C 17509,2470 17509,2470 17509,2470"/><path inkscape:connector-curvature="0" style="fill:none;stroke:#000000;stroke-width:20" id="path3949" d="M 16137,2470 C 16137,2470 16137,2470 16137,2470"/><path inkscape:connector-curvature="0" style="fill:#000000;stroke:#000000;stroke-width:7.61999989" id="path3951" d="M 9705,2470 C 9766,2247 9799,2014 9799,1774 L 8517,1774 C 8844,2108 9254,2348 9705,2470 L 9705,2470 z"/><path inkscape:connector-curvature="0" style="fill:#000000;stroke:#000000;stroke-width:7.61999989" id="path3953" d="M 11077,2470 C 11528,2348 11938,2108 12265,1774 L 10983,1774 C 10983,2014 11015,2247 11077,2470 L 11077,2470 z"/><path inkscape:connector-curvature="0" style="fill:#000000;stroke:#000000;stroke-width:7.61999989" id="path3955" d="M 14949,1774 C 15276,2108 15686,2348 16137,2470 L 16137,2470 C 16198,2247 16231,2014 16231,1774 L 14949,1774 z"/><path inkscape:connector-curvature="0" style="fill:#000000;stroke:#000000;stroke-width:7.61999989" id="path3957" d="M 17415,1774 C 17415,2014 17447,2247 17509,2470 L 17509,2470 C 17960,2348 18370,2108 18697,1774 L 17415,1774 z"/><path inkscape:connector-curvature="0" style="fill:#000000;stroke:#000000;stroke-width:7.61999989" id="path3959" d="M 4645,2470 C 5096,2348 5506,2108 5833,1774 L 4551,1774 C 4551,2014 4583,2247 4645,2470 L 4645,2470 z"/>
 <g id="Default">
  <metadata id="CorelCorpID_1Corel-Layer"/>
  <line class="fil0 str3" x1="20124" y1="1774" x2="20039" y2="20143" id="line3963" style="fill:none;stroke:#000000;stroke-width:100;stroke-linejoin:bevel"/>
  <line class="fil0 str3" x1="743" y1="20143" x2="743" y2="1774" id="line3965" style="fill:none;stroke:#000000;stroke-width:100;stroke-linejoin:bevel"/>
  <path d="M 18697,16469 C 18203,15966 17528,15682 16823,15682 C 16118,15682 15443,15966 14949,16469" id="path3967" style="fill:none;stroke:#000000;stroke-width:100;stroke-linejoin:bevel"/>
  <path d="M 20051,17519 C 19342,17516 18661,17800 18165,18306" id="path3969" style="fill:none;stroke:#000000;stroke-width:100;stroke-linejoin:bevel"/>
  <path d="M 18697,20143 C 18203,19640 17528,19356 16823,19356 C 16118,19356 15443,19640 14949,20143" id="path3971" style="fill:none;stroke:#000000;stroke-width:100;stroke-linejoin:bevel"/>
  <path d="M 17509,12099 C 17324,12772 17414,13490 17760,14096 C 18106,14702 18679,15145 19353,15327" id="path3973" style="fill:none;stroke:#000000;stroke-width:100;stroke-linejoin:bevel"/>
  <path d="M 17509,15773 C 17324,16446 17414,17164 17760,17770 C 18106,18376 18679,18819 19353,19001" id="path3975" style="fill:none;stroke:#000000;stroke-width:100;stroke-linejoin:bevel"/>
  <path d="M 17415,1774 C 17415,2959 18209,3997 19353,4307" id="path3977" style="fill:none;stroke:#000000;stroke-width:100;stroke-linejoin:bevel"/>
  <path d="M 17509,4752 C 17324,5425 17414,6143 17760,6749 C 18106,7355 18679,7798 19353,7980" id="path3979" style="fill:none;stroke:#000000;stroke-width:100;stroke-linejoin:bevel"/>
  <path d="M 17509,8426 C 17324,9099 17414,9817 17760,10423 C 18106,11029 18679,11472 19353,11654" id="path3981" style="fill:none;stroke:#000000;stroke-width:100;stroke-linejoin:bevel"/>
  <path d="M 17509,2470 C 17960,2348 18370,2108 18697,1774" id="path3983" style="fill:none;stroke:#000000;stroke-width:100;stroke-linejoin:bevel"/>
  <path d="M 4645,2470 C 5096,2348 5506,2108 5833,1774" id="path3985" style="fill:none;stroke:#000000;stroke-width:100;stroke-linejoin:bevel"/>
  <path d="M 1429,4307 C 2573,3997 3367,2959 3367,1774" id="path3987" style="fill:none;stroke:#000000;stroke-width:100;stroke-linejoin:bevel"/>
  <path d="M 1429,7981 C 2102,7799 2676,7356 3022,6750 C 3368,6144 3459,5425 3273,4753" id="path3989" style="fill:none;stroke:#000000;stroke-width:100;stroke-linejoin:bevel"/>
  <path d="M 1429,11654 C 2102,11472 2676,11028 3022,10423 C 3368,9817 3459,9098 3273,8426" id="path3991" style="fill:none;stroke:#000000;stroke-width:100;stroke-linejoin:bevel"/>
  <path d="M 5833,9122 C 5339,8619 4664,8335 3959,8335 C 3254,8335 2579,8619 2085,9122" id="path3993" style="fill:none;stroke:#000000;stroke-width:100;stroke-linejoin:bevel"/>
  <path d="M 5833,5448 C 5339,4945 4664,4661 3959,4661 C 3254,4661 2579,4945 2085,5448" id="path3995" style="fill:none;stroke:#000000;stroke-width:100;stroke-linejoin:bevel"/>
  <path d="M 9049,10958 C 8555,10455 7880,10171 7175,10171 C 6470,10171 5795,10455 5301,10958" id="path3997" style="fill:none;stroke:#000000;stroke-width:100;stroke-linejoin:bevel"/>
  <path d="M 2617,10958 C 2123,10455 1448,10171 743,10171" id="path3999" style="fill:none;stroke:#000000;stroke-width:100;stroke-linejoin:bevel"/>
  <path d="M 1429,6589 C 1244,7262 1334,7980 1680,8586 C 2026,9192 2599,9635 3273,9817" id="path4001" style="fill:none;stroke:#000000;stroke-width:100;stroke-linejoin:bevel"/>
  <path d="M 2617,7285 C 2123,6782 1448,6498 743,6498" id="path4003" style="fill:none;stroke:#000000;stroke-width:100;stroke-linejoin:bevel"/>
  <path d="M 9049,7285 C 8555,6782 7880,6498 7175,6498 C 6470,6498 5795,6782 5301,7285" id="path4005" style="fill:none;stroke:#000000;stroke-width:100;stroke-linejoin:bevel"/>
  <path d="M 1429,2915 C 1244,3588 1334,4306 1680,4912 C 2026,5518 2599,5961 3273,6143" id="path4007" style="fill:none;stroke:#000000;stroke-width:100;stroke-linejoin:bevel"/>
  <path d="M 2617,3611 C 2123,3108 1448,2824 743,2824" id="path4009" style="fill:none;stroke:#000000;stroke-width:100;stroke-linejoin:bevel"/>
  <path d="M 9049,3611 C 8555,3108 7880,2824 7175,2824 C 6470,2824 5795,3108 5301,3611" id="path4011" style="fill:none;stroke:#000000;stroke-width:100;stroke-linejoin:bevel"/>
  <path d="M 2085,1774 C 2412,2108 2822,2348 3273,2470" id="path4013" style="fill:none;stroke:#000000;stroke-width:100;stroke-linejoin:bevel"/>
  <path d="M 4645,8426 C 4460,9099 4550,9817 4896,10423 C 5242,11029 5815,11472 6489,11654" id="path4015" style="fill:none;stroke:#000000;stroke-width:100;stroke-linejoin:bevel"/>
  <path d="M 12265,9122 C 11771,8619 11096,8335 10391,8335 C 9686,8335 9011,8619 8517,9122" id="path4017" style="fill:none;stroke:#000000;stroke-width:100;stroke-linejoin:bevel"/>
  <path d="M 4645,4752 C 4460,5425 4550,6143 4896,6749 C 5242,7355 5815,7798 6489,7980" id="path4019" style="fill:none;stroke:#000000;stroke-width:100;stroke-linejoin:bevel"/>
  <path d="M 4645,9818 C 5318,9636 5892,9192 6238,8587 C 6584,7981 6675,7262 6489,6590" id="path4021" style="fill:none;stroke:#000000;stroke-width:100;stroke-linejoin:bevel"/>
  <path d="M 12265,5448 C 11771,4945 11096,4661 10391,4661 C 9686,4661 9011,4945 8517,5448" id="path4023" style="fill:none;stroke:#000000;stroke-width:100;stroke-linejoin:bevel"/>
  <path d="M 4551,1774 C 4551,2959 5345,3997 6489,4307" id="path4025" style="fill:none;stroke:#000000;stroke-width:100;stroke-linejoin:bevel"/>
  <path d="M 4645,6144 C 5318,5962 5892,5519 6238,4913 C 6584,4307 6675,3588 6489,2916" id="path4027" style="fill:none;stroke:#000000;stroke-width:100;stroke-linejoin:bevel"/>
  <path d="M 15481,14632 C 14987,14129 14312,13845 13607,13845 C 12902,13845 12227,14129 11733,14632" id="path4029" style="fill:none;stroke:#000000;stroke-width:100;stroke-linejoin:bevel"/>
  <path d="M 15481,10958 C 14987,10455 14312,10171 13607,10171 C 12902,10171 12227,10455 11733,10958" id="path4031" style="fill:none;stroke:#000000;stroke-width:100;stroke-linejoin:bevel"/>
  <path d="M 7861,6589 C 7676,7262 7766,7980 8112,8586 C 8458,9192 9031,9635 9705,9817" id="path4033" style="fill:none;stroke:#000000;stroke-width:100;stroke-linejoin:bevel"/>
  <path d="M 7861,11654 C 8534,11472 9108,11028 9454,10423 C 9800,9817 9891,9098 9705,8426" id="path4035" style="fill:none;stroke:#000000;stroke-width:100;stroke-linejoin:bevel"/>
  <path d="M 15481,7285 C 14987,6782 14312,6498 13607,6498 C 12902,6498 12227,6782 11733,7285" id="path4037" style="fill:none;stroke:#000000;stroke-width:100;stroke-linejoin:bevel"/>
  <path d="M 7861,2915 C 7676,3588 7766,4306 8112,4912 C 8458,5518 9031,5961 9705,6143" id="path4039" style="fill:none;stroke:#000000;stroke-width:100;stroke-linejoin:bevel"/>
  <path d="M 7861,7981 C 8534,7799 9108,7356 9454,6750 C 9800,6144 9891,5425 9705,4753" id="path4041" style="fill:none;stroke:#000000;stroke-width:100;stroke-linejoin:bevel"/>
  <path d="M 8517,1774 C 8844,2108 9254,2348 9705,2470" id="path4043" style="fill:none;stroke:#000000;stroke-width:100;stroke-linejoin:bevel"/>
  <path d="M 15481,3611 C 14987,3108 14312,2824 13607,2824 C 12902,2824 12227,3108 11733,3611" id="path4045" style="fill:none;stroke:#000000;stroke-width:100;stroke-linejoin:bevel"/>
  <path d="M 7861,4307 C 9005,3997 9799,2959 9799,1774" id="path4047" style="fill:none;stroke:#000000;stroke-width:100;stroke-linejoin:bevel"/>
  <path d="M 14293,17610 C 14045,18511 14295,19476 14949,20143" id="path4049" style="fill:none;stroke:#000000;stroke-width:100;stroke-linejoin:bevel"/>
  <path d="M 18697,12795 C 18203,12292 17528,12008 16823,12008 C 16118,12008 15443,12292 14949,12795" id="path4051" style="fill:none;stroke:#000000;stroke-width:100;stroke-linejoin:bevel"/>
  <path d="M 11077,8426 C 10892,9099 10982,9817 11328,10423 C 11674,11029 12247,11472 12921,11654" id="path4053" style="fill:none;stroke:#000000;stroke-width:100;stroke-linejoin:bevel"/>
  <path d="M 18697,9122 C 18203,8619 17528,8335 16823,8335 C 16118,8335 15443,8619 14949,9122" id="path4055" style="fill:none;stroke:#000000;stroke-width:100;stroke-linejoin:bevel"/>
  <path d="M 11077,4752 C 10892,5425 10982,6143 11328,6749 C 11674,7355 12247,7798 12921,7980" id="path4057" style="fill:none;stroke:#000000;stroke-width:100;stroke-linejoin:bevel"/>
  <path d="M 11077,9818 C 11750,9636 12324,9192 12670,8587 C 13016,7981 13107,7262 12921,6590" id="path4059" style="fill:none;stroke:#000000;stroke-width:100;stroke-linejoin:bevel"/>
  <path d="M 18697,5448 C 18203,4945 17528,4661 16823,4661 C 16118,4661 15443,4945 14949,5448" id="path4061" style="fill:none;stroke:#000000;stroke-width:100;stroke-linejoin:bevel"/>
  <path d="M 10983,1774 C 10983,2959 11777,3997 12921,4307" id="path4063" style="fill:none;stroke:#000000;stroke-width:100;stroke-linejoin:bevel"/>
  <path d="M 11077,6144 C 11750,5962 12324,5519 12670,4913 C 13016,4307 13107,3588 12921,2916" id="path4065" style="fill:none;stroke:#000000;stroke-width:100;stroke-linejoin:bevel"/>
  <path d="M 16231,20143 C 16231,19908 16199,19674 16137,19447" id="path4067" style="fill:none;stroke:#000000;stroke-width:100;stroke-linejoin:bevel"/>
  <path d="M 17509,19447 C 17447,19674 17415,19908 17415,20143" id="path4069" style="fill:none;stroke:#000000;stroke-width:100;stroke-linejoin:bevel"/>
  <path d="M 14293,13936 C 14108,14609 14198,15327 14544,15933 C 14890,16539 15463,16982 16137,17164" id="path4071" style="fill:none;stroke:#000000;stroke-width:100;stroke-linejoin:bevel"/>
  <path d="M 14293,19002 C 14966,18820 15540,18377 15886,17771 C 16232,17165 16323,16446 16137,15774" id="path4073" style="fill:none;stroke:#000000;stroke-width:100;stroke-linejoin:bevel"/>
  <path d="M 20068,13845 C 19353,13837 18665,14121 18165,14632" id="path4075" style="fill:none;stroke:#000000;stroke-width:100;stroke-linejoin:bevel"/>
  <path d="M 14293,10263 C 14108,10936 14198,11654 14544,12260 C 14890,12866 15463,13309 16137,13491" id="path4077" style="fill:none;stroke:#000000;stroke-width:100;stroke-linejoin:bevel"/>
  <path d="M 14293,15328 C 14966,15146 15540,14702 15886,14097 C 16232,13491 16323,12772 16137,12100" id="path4079" style="fill:none;stroke:#000000;stroke-width:100;stroke-linejoin:bevel"/>
  <path d="M 20085,10172 C 19364,10159 18670,10444 18165,10959" id="path4081" style="fill:none;stroke:#000000;stroke-width:100;stroke-linejoin:bevel"/>
  <path d="M 14293,6589 C 14108,7262 14198,7980 14544,8586 C 14890,9192 15463,9635 16137,9817" id="path4083" style="fill:none;stroke:#000000;stroke-width:100;stroke-linejoin:bevel"/>
  <path d="M 14293,11654 C 14966,11472 15540,11028 15886,10423 C 16232,9817 16323,9098 16137,8426" id="path4085" style="fill:none;stroke:#000000;stroke-width:100;stroke-linejoin:bevel"/>
  <path d="M 20102,6498 C 19375,6480 18674,6765 18165,7284" id="path4087" style="fill:none;stroke:#000000;stroke-width:100;stroke-linejoin:bevel"/>
  <path d="M 14293,2915 C 14108,3588 14198,4306 14544,4912 C 14890,5518 15463,5961 16137,6143" id="path4089" style="fill:none;stroke:#000000;stroke-width:100;stroke-linejoin:bevel"/>
  <path d="M 14293,7981 C 14966,7799 15540,7356 15886,6750 C 16232,6144 16323,5425 16137,4753" id="path4091" style="fill:none;stroke:#000000;stroke-width:100;stroke-linejoin:bevel"/>
  <path d="M 20119,2825 C 19386,2803 18678,3088 18165,3611" id="path4093" style="fill:none;stroke:#000000;stroke-width:100;stroke-linejoin:bevel"/>
  <path d="M 14949,1774 C 15276,2108 15686,2348 16137,2470" id="path4095" style="fill:none;stroke:#000000;stroke-width:100;stroke-linejoin:bevel"/>
  <path d="M 14293,4307 C 15437,3997 16231,2959 16231,1774" id="path4097" style="fill:none;stroke:#000000;stroke-width:100;stroke-linejoin:bevel"/>
  <path d="M 18697,20143 C 19351,19476 19601,18511 19353,17610" id="path4099" style="fill:none;stroke:#000000;stroke-width:100;stroke-linejoin:bevel"/>
  <path d="M 17509,17165 C 18182,16983 18756,16539 19102,15934 C 19448,15328 19539,14609 19353,13937" id="path4101" style="fill:none;stroke:#000000;stroke-width:100;stroke-linejoin:bevel"/>
  <path d="M 17509,13491 C 18182,13309 18756,12865 19102,12260 C 19448,11654 19539,10935 19353,10263" id="path4103" style="fill:none;stroke:#000000;stroke-width:100;stroke-linejoin:bevel"/>
  <path d="M 17509,9818 C 18182,9636 18756,9192 19102,8587 C 19448,7981 19539,7262 19353,6590" id="path4105" style="fill:none;stroke:#000000;stroke-width:100;stroke-linejoin:bevel"/>
  <path d="M 17509,6144 C 18182,5962 18756,5519 19102,4913 C 19448,4307 19539,3588 19353,2916" id="path4107" style="fill:none;stroke:#000000;stroke-width:100;stroke-linejoin:bevel"/>
  <path d="M 1429,17610 C 1181,18511 1431,19476 2085,20143" id="path4109" style="fill:none;stroke:#000000;stroke-width:100;stroke-linejoin:bevel"/>
  <path d="M 2617,18306 C 2123,17802 1448,17519 743,17519" id="path4111" style="fill:none;stroke:#000000;stroke-width:100;stroke-linejoin:bevel"/>
  <path d="M 3367,20143 C 3367,19908 3335,19674 3273,19447" id="path4113" style="fill:none;stroke:#000000;stroke-width:100;stroke-linejoin:bevel"/>
  <path d="M 5833,20143 C 5339,19640 4664,19356 3959,19356 C 3254,19356 2579,19640 2085,20143" id="path4115" style="fill:none;stroke:#000000;stroke-width:100;stroke-linejoin:bevel"/>
  <path d="M 4645,19447 C 4583,19674 4551,19908 4551,20143" id="path4117" style="fill:none;stroke:#000000;stroke-width:100;stroke-linejoin:bevel"/>
  <path d="M 5833,20143 C 6487,19476 6737,18511 6489,17610" id="path4119" style="fill:none;stroke:#000000;stroke-width:100;stroke-linejoin:bevel"/>
  <path d="M 4645,15773 C 4460,16446 4550,17164 4896,17770 C 5242,18376 5815,18819 6489,19001" id="path4121" style="fill:none;stroke:#000000;stroke-width:100;stroke-linejoin:bevel"/>
  <path d="M 5833,16469 C 5339,15966 4664,15682 3959,15682 C 3254,15682 2579,15966 2085,16469" id="path4123" style="fill:none;stroke:#000000;stroke-width:100;stroke-linejoin:bevel"/>
  <path d="M 1429,19002 C 2102,18820 2676,18377 3022,17771 C 3368,17165 3459,16446 3273,15774" id="path4125" style="fill:none;stroke:#000000;stroke-width:100;stroke-linejoin:bevel"/>
  <path d="M 2617,14632 C 2123,14129 1448,13845 743,13845" id="path4127" style="fill:none;stroke:#000000;stroke-width:100;stroke-linejoin:bevel"/>
  <path d="M 1429,13936 C 1244,14609 1334,15327 1680,15933 C 2026,16539 2599,16982 3273,17164" id="path4129" style="fill:none;stroke:#000000;stroke-width:100;stroke-linejoin:bevel"/>
  <path d="M 1429,10263 C 1244,10936 1334,11654 1680,12260 C 2026,12866 2599,13309 3273,13491" id="path4131" style="fill:none;stroke:#000000;stroke-width:100;stroke-linejoin:bevel"/>
  <path d="M 1429,15328 C 2102,15146 2676,14702 3022,14097 C 3368,13491 3459,12772 3273,12100" id="path4133" style="fill:none;stroke:#000000;stroke-width:100;stroke-linejoin:bevel"/>
  <path d="M 4645,13491 C 5318,13309 5892,12865 6238,12260 C 6584,11654 6675,10935 6489,10263" id="path4135" style="fill:none;stroke:#000000;stroke-width:100;stroke-linejoin:bevel"/>
  <path d="M 5833,12795 C 5339,12292 4664,12008 3959,12008 C 3254,12008 2579,12292 2085,12795" id="path4137" style="fill:none;stroke:#000000;stroke-width:100;stroke-linejoin:bevel"/>
  <path d="M 4645,12099 C 4460,12772 4550,13490 4896,14096 C 5242,14702 5815,15145 6489,15327" id="path4139" style="fill:none;stroke:#000000;stroke-width:100;stroke-linejoin:bevel"/>
  <path d="M 4645,17165 C 5318,16983 5892,16539 6238,15934 C 6584,15328 6675,14609 6489,13937" id="path4141" style="fill:none;stroke:#000000;stroke-width:100;stroke-linejoin:bevel"/>
  <path d="M 9049,14632 C 8555,14129 7880,13845 7175,13845 C 6470,13845 5795,14129 5301,14632" id="path4143" style="fill:none;stroke:#000000;stroke-width:100;stroke-linejoin:bevel"/>
  <path d="M 7861,13936 C 7676,14609 7766,15327 8112,15933 C 8458,16539 9031,16982 9705,17164" id="path4145" style="fill:none;stroke:#000000;stroke-width:100;stroke-linejoin:bevel"/>
  <path d="M 7861,17610 C 7613,18511 7863,19476 8517,20143" id="path4147" style="fill:none;stroke:#000000;stroke-width:100;stroke-linejoin:bevel"/>
  <path d="M 7861,19002 C 8534,18820 9108,18377 9454,17771 C 9800,17165 9891,16446 9705,15774" id="path4149" style="fill:none;stroke:#000000;stroke-width:100;stroke-linejoin:bevel"/>
  <path d="M 9049,18306 C 8555,17802 7880,17519 7175,17519 C 6470,17519 5795,17803 5301,18306" id="path4151" style="fill:none;stroke:#000000;stroke-width:100;stroke-linejoin:bevel"/>
  <path d="M 9799,20143 C 9799,19908 9767,19674 9705,19447" id="path4153" style="fill:none;stroke:#000000;stroke-width:100;stroke-linejoin:bevel"/>
  <line class="fil0 str3" x1="20039" y1="20143" x2="743" y2="20143" id="line4155" style="fill:none;stroke:#000000;stroke-width:100;stroke-linejoin:bevel"/>
  <path d="M 12265,20143 C 11771,19640 11096,19356 10391,19356 C 9686,19356 9011,19640 8517,20143" id="path4157" style="fill:none;stroke:#000000;stroke-width:100;stroke-linejoin:bevel"/>
  <path d="M 11077,19447 C 11015,19674 10983,19908 10983,20143" id="path4159" style="fill:none;stroke:#000000;stroke-width:100;stroke-linejoin:bevel"/>
  <path d="M 15481,18306 C 14987,17802 14312,17519 13607,17519 C 12902,17519 12227,17803 11733,18306" id="path4161" style="fill:none;stroke:#000000;stroke-width:100;stroke-linejoin:bevel"/>
  <path d="M 12265,20143 C 12919,19476 13169,18511 12921,17610" id="path4163" style="fill:none;stroke:#000000;stroke-width:100;stroke-linejoin:bevel"/>
  <path d="M 11077,17165 C 11750,16983 12324,16539 12670,15934 C 13016,15328 13107,14609 12921,13937" id="path4165" style="fill:none;stroke:#000000;stroke-width:100;stroke-linejoin:bevel"/>
  <path d="M 12265,16469 C 11771,15966 11096,15682 10391,15682 C 9686,15682 9011,15966 8517,16469" id="path4167" style="fill:none;stroke:#000000;stroke-width:100;stroke-linejoin:bevel"/>
  <path d="M 11077,15773 C 10892,16446 10982,17164 11328,17770 C 11674,18376 12247,18819 12921,19001" id="path4169" style="fill:none;stroke:#000000;stroke-width:100;stroke-linejoin:bevel"/>
  <path d="M 11077,12099 C 10892,12772 10982,13490 11328,14096 C 11674,14702 12247,15145 12921,15327" id="path4171" style="fill:none;stroke:#000000;stroke-width:100;stroke-linejoin:bevel"/>
  <path d="M 11077,13491 C 11750,13309 12324,12865 12670,12260 C 13016,11654 13107,10935 12921,10263" id="path4173" style="fill:none;stroke:#000000;stroke-width:100;stroke-linejoin:bevel"/>
  <path d="M 7861,15328 C 8534,15146 9108,14702 9454,14097 C 9800,13491 9891,12772 9705,12100" id="path4175" style="fill:none;stroke:#000000;stroke-width:100;stroke-linejoin:bevel"/>
  <path d="M 12265,12795 C 11771,12292 11096,12008 10391,12008 C 9686,12008 9011,12292 8517,12795" id="path4177" style="fill:none;stroke:#000000;stroke-width:100;stroke-linejoin:bevel"/>
  <path d="M 7861,10263 C 7676,10936 7766,11654 8112,12260 C 8458,12866 9031,13309 9705,13491" id="path4179" style="fill:none;stroke:#000000;stroke-width:100;stroke-linejoin:bevel"/>
  <line class="fil0 str3" x1="743" y1="1774" x2="20124" y2="1774" id="line4181" style="fill:none;stroke:#000000;stroke-width:100;stroke-linejoin:bevel"/>
  <path d="M 11077,2470 C 11528,2348 11938,2108 12265,1774" id="path4183" style="fill:none;stroke:#000000;stroke-width:100;stroke-linejoin:bevel"/>
 </g>


<metadata><rdf:RDF><cc:Work><dc:format>image/svg+xml</dc:format><dc:type rdf:resource="http://purl.org/dc/dcmitype/StillImage"/><cc:license rdf:resource="http://creativecommons.org/licenses/publicdomain/"/><dc:publisher><cc:Agent rdf:about="http://openclipart.org/"><dc:title>Open Clip Art Library</dc:title></cc:Agent></dc:publisher><dc:title>Celtic repeating geometric pattern</dc:title><dc:date>2012-08-28T06:22:54</dc:date><dc:description>From old book</dc:description><dc:source>http://openclipart.org/detail/171947/celtic-repeating-geometric-pattern-by-craftsmanspace-171947</dc:source><dc:creator><cc:Agent><dc:title>Craftsmanspace</dc:title></cc:Agent></dc:creator><dc:subject><rdf:Bag><rdf:li>celtic</rdf:li><rdf:li>clip art</rdf:li><rdf:li>clipart</rdf:li><rdf:li>geometric</rdf:li><rdf:li>pattern</rdf:li><rdf:li>repeating</rdf:li></rdf:Bag></dc:subject></cc:Work><cc:License rdf:about="http://creativecommons.org/licenses/publicdomain/"><cc:permits rdf:resource="http://creativecommons.org/ns#Reproduction"/><cc:permits rdf:resource="http://creativecommons.org/ns#Distribution"/><cc:permits rdf:resource="http://creativecommons.org/ns#DerivativeWorks"/></cc:License></rdf:RDF></metadata></svg>
