
<svg viewBox="0 0 15 15" width="8rem" height="8rem">
    <path d="M 5 2 L 11 2 C 12 2 13 3 13 4 L 13 6 L 12 6 L 12 5 C 12 4 10 4 10 3 L 5 3 C 4 3 3 4 3 5 L 3 11 C 3 12 3.61 12.948 5 13 L 10 13 C 11 13 12 13 12 11 L 12 10 L 13 10 L 13 12 C 13 14 11 14 11 14 L 4 14 C 3 14 2 13 2 12 L 2 4 C 2 3 3 2 4 2 C 4 2 4 2 4 2 Z " fill="red" fill-opacity="1"/>
    <path d="M 4 6 L 4 8 C 4 8 4 9 5 9 L 9 9 C 10 9 10 8 10 8 L 10 10 C 10 11 9 11 9 11 L 6 11 C 5 11 5 10 5 10 L 5 10 C 5 10 5 10 4 10 L 4 11 C 4 11 4 12 5 12 L 10 12 C 11 12 11 11 11 11 L 11 6 C 11 5 11 4 10 4 L 5 4 C 5 4 4 4 4 5 Z "fill="blue" fill-opacity="0.5" />
    <path d="M 5 7 C 5 8 6 8 6 8 L 8 8 C 9 8 10 7 9 7 L 9 6 C 10 6 10 5 8 5 L 6 5 C 6 5 5 5 5 6 Z" fill="black" fill-opacity="1"/>
    <path d="M 3 6 L 3 5 C 3 4 4 3 5 3 L 10 3 C 11 3 12 4 12 5 C 12 7 12 8 11 8 C 7 8 8 10 4 10 L 4 11 C 4 11 4 12 5 12 L 10 12 C 11 12 11 11 11 10 L 11 9 L 12 9 L 12 11 C 12.011 12.47 11.533 13.095 10 13 L 5 13 C 3 13 3 11 3 11 C 3 9 3 8 4 8 C 7 8 7 6 11 6 L 11 5 C 11 5 11 4 10 4 L 5 4 C 4 4 4 5 4 5 L 4 6 Z" fill="green" fill-opacity="0.5" />
</svg>








