
<svg viewBox="0 0 15 15" width="8rem" height="8rem">
    <path id="logo_back" d="M 5 2 L 11 2 C 12 2 13 3 13 4 L 13 6 L 13 10 L 13 12 C 13 13 12 14 11 14 L 4 14 C 3 14 2 13 2 12 L 2 4 C 2 3 3 2 4 2 C 4 2 4 2 4 2 Z" fill="black" fill-opacity="1"/>
    <path id="logo_c" d="M 5 2 L 11 2 C 12 2 13 3 13 4 L 13 6 L 11.004 7.569 L 11 5 C 11 3 9 3 9 3 L 5 3 C 5 3 3 3 3 5 L 3 11 C 3.001 11.995 3 13 5 13 L 9 13 C 9 13 11 13 11 11 L 11 9 L 13 10 L 13 12 C 13 13 12 14 11 14 L 4 14 C 3 14 2 13 2 12 L 2 4 C 2 3 3 2 4 2 C 4 2 4 2 4 2 Z" fill="white" fill-opacity="1"/>
    <path id="logo_z" d="M 3 6 L 3 5 C 2.997 3.711 3.885 3.053 5 3 L 10 3 C 12 3 12 4 12 5 L 12 5 L 5 11 C 4 11 5 11 6 11 L 9 11 C 10 11 10 10 10 10 L 10 9 L 12 10 L 12 11 C 12 12 12 13 10 13 L 5 13 C 3 13 3.003 12.003 3 11 L 3 11 L 10 5 C 10 5 9 5 9 5 L 6 5 C 5 5 5 6 5 6 L 5 7 Z" fill="grey" fill-opacity="1" />
    <!-- <path d="M 4 11 L 4 11 C 4 12 5 12 5 12 L 10 12 C 10 12 11 12 11 11 L 11 5 C 11 5 11 4 10 4 L 5 4 C 4 4 4 5 4 5 L 4 9 C 4 9 4 10 5 10 L 9 10 C 10 10 10 9 10 9 L 10 7 C 10 7 10 6 9.011 6.129 L 8 7 C 8 7 9 7 9 8 C 9 8 9 9 8 9 L 6 9 C 5 9 5 8 5 8 L 5 6 C 5 6 5 5 6 5 L 9 5 C 9 5 10 5 10 6 L 10 10 C 10 11 9 11 9 11 L 6 11 C 6 11 5 11 5 10 Z" fill="white" fill-opacity="0.5"/> -->
    <path id="logo_g" d="M 4 7 L 4 5 C 4 4 5 4 5 4 L 10 4 C 10 4 11 4 11 5 L 11 5 L 9.003 6.729 C 9 6 8 6 8 6 L 7 6 C 7 6 6 6 6 7 L 6 9 C 6 10 7 10 7 10 L 8 10 C 9 10 9 9 9 9 C 9 9 9 8 8 8 L 7.543 8.001 L 8.698 6.999 L 10 7 C 10 7 11 7 11 8 L 11 11 C 11 11 11 12 10 12 L 5 12 C 4 12 4 11 4 11 Z " fill="white" fill-opacity="0.5"/>
    



    
</svg>












