<svg id="visual" viewBox="0 0 2000 300" width="2000" height="300" xmlns="http://www.w3.org/2000/svg" xmlns:xlink="http://www.w3.org/1999/xlink" version="1.1">
    <path d="M0 215L286 201L571 215L857 195L1143 221L1429 215L1714 204L2000 175L2000 301L1714 301L1429 301L1143 301L857 301L571 301L286 301L0 301Z" fill="#ffffff3f"></path>
    <path d="M0 204L286 204L571 231L857 210L1143 216L1429 204L1714 222L2000 206L2000 301L1714 301L1429 301L1143 301L857 301L571 301L286 301L0 301Z" fill="#ffffff7f"></path>
    <path d="M0 245L286 246L571 232L857 232L1143 241L1429 218L1714 221L2000 231L2000 301L1714 301L1429 301L1143 301L857 301L571 301L286 301L0 301Z" fill="#ffffff1f"></path>
    <path d="M0 243L286 262L571 265L857 259L1143 265L1429 252L1714 258L2000 263L2000 301L1714 301L1429 301L1143 301L857 301L571 301L286 301L0 301Z" fill="#ffffff7f"></path>
    <path d="M0 266L286 285L571 286L857 272L1143 269L1429 263L1714 274L2000 275L2000 301L1714 301L1429 301L1143 301L857 301L571 301L286 301L0 301Z" fill="#ffffff3f"></path>
</svg>
