<?xml version="1.0" encoding="UTF-8"?>
<svg xmlns="http://www.w3.org/2000/svg" width="500" height="500">
<rect width="500" height="500" fill="#706a55" fill-opacity="0.2"/>
<g fill="#ffffffcd" fill-opacity="0.2">
<path d="M0,150 h100 v50 h50 v50 h-100 v-50 h-50z"/>
<path d="M350,0 h50 v50 h50 v50 h50 v50 h-150z"/>
<path d="M250,250 h100 v50 h-50 v50 h50 v50 h-50 v50 h-50 v50 h-150 v-50 h50 v-50 h50 v-50 h50z"/>
<rect width="50" height="50" x="450" y="300"/></g>
<g fill="#ffffff8c" fill-opacity="0.2">
<path d="M250,50 h50 v50 h50 v100 h-50 v-50 h-100 v-50 h50z"/>
<rect width="50" height="100" x="50" y="300"/>
<rect width="50" height="50" x="100" y="400"/></g>
<g fill="#ffffff4b" fill-opacity="0.2">
<path d="M100,0 h50 v100 h-100 v-50 h50z"/>
<rect width="100" height="50" x="400" y="400"/></g>
</svg>