<?xml version="1.0" encoding="UTF-8"?>
<svg xmlns="http://www.w3.org/2000/svg" width="500" height="500">
<path fill="none" stroke="#000" stroke-width="4"
d="m244,0a244,244 0 0,1-244,244m0,12a244,244 0 0,1 244,244m12,0a244,244 0 0,1
244-244m0-12a244,244 0 0,1-244-244M98,25a74,73
0 1,0 1,0zm0,25a48,48 0 1,0 1,0zm0,25a23,23 0 1,0 1,0zm0,252a73,73
0 1,0 1,0zm0,25a48,48 0 1,0 1,0zm0,25a23,23 0 1,0 1,0zm303,0a23,23
0 1,0 1,0zm0-25a48,48 0 1,0 1,0zm0-25a73,73 0 1,0 1,0zm0-302a73,73
0 1,0 1,0zm0,25a48,48 0 1,0 1,0zm0,25a23,23 0 1,0 1,0zm-151,80a95,95
0 1,0 1,0zm0,25a70,70 0 1,0 1,0zm0,25a45,45 0 1,0 1,0zm0,25a20,20 0 1,0 1,0z"/>
</svg>