<svg xmlns="http://www.w3.org/2000/svg" viewBox="0 0 3600 3758.2">
  <defs>
    <style>
      .cls-1 {
        fill: #ffffff4f;
      }
    </style>
  </defs>
  <title>Portion of Pattern of Jali from Humayun&amp;apos;s Tomb</title>
  <g id="Layer_2" data-name="Layer 2">
    <g id="Portion_of_Pattern_of_Jali_from_Humayun_s_Tomb" data-name="Portion of Pattern of Jali from Humayun&apos;s Tomb">
      <path class="cls-1" d="M2357.32,2876v105.23l-2.57-.52v7.07l-82.81-49.59-67.05-118.92h-44.78l-51.28,92.31h-.53l-2.48,5.14h-99.3l-52.14-94,1.92-3.45h-40.55l-4.24,7.65,51.31,92.37h-1.19l2.34,2.58H1855.76l-48.56,88.51-.12-.21-.68,1.22-2.18-3.92-.58,1.06-3-5.34v98.86l5.14-9.06,54,96.25h110.35l-42.65,85.15-56.33,36.51-45.77,29.64-16.17,9.54-8.56-5.15v55.85l86.21,51.8v.36l5.14,3-.13,98.94-87.53,52.6-3.69-2.22v42.53l6.55,3.93,84.8-51.12v.86l2.57-2.13v105l87.92,51.93-.23.13,1.21.72-1.75,1h75.47l-.42-.25,87-54,5.27-104.92v-5.78l75,42.47,34.89,58.38,37.54,62.78-.73,1.31h41.32l51.77-93.32h.66l2.5-5.14,99.27.13,52,93.9-2.46,4.43h43.22l2.65-4.79-52.09-93.67h1.3l-2.37-2.57h104.87l53.11-94.05v.87l.72-1.26,2.3,4.15.64-1.13,4.48,8.36V3471l-7.78,14-54-95.13H2533.35l9-18,32.91-65.33,3.19-2.06.43.26.44-.82.52-.31,51.41-33.42,4.53-2.93,55.14-35.74,8.81,5.22V3185l-80.12-48.22v-.53l-5.14-2.95V3027.49l85.26-51.07v-43l-15.47,9.31-1,.62L2617,2982.84v-106l-5.15-1.74v1.9l-94.68-56,2.57-1.59-.24-.17h-72.68l2.53,1.53Zm257.1,107.54,1.49.46-1.49.9Zm-259.67,47.2-.92,127.65H2161.5l98.13-179.63Zm-5.14,163.64v198H2161.93v-198Zm-470.95-52.24-49.75-89.65,51-92.06h104.46l48.67,88.09L1981.68,3143ZM2102,3685l-84.59,50.85-86.89-52.22V3576.79l83-49.85,89.2,52.69Zm7.77-153.75L2023,3479.1l-89.92,53.69v-106l-88.07-52.92,2.57-1.62-1.1-.69,75-45,189,111.91Zm13.57-131.07-175.13-103.63,52.37-104.69,122.76,1Zm-.64-249.45-93.82-.78,52.29-94.26-53.92-97.78h106.39l53.11-95.76,1.61,2.86.67-1.21,45.64,82Zm112.19,459.11-85.84-46.53,1-134.92h183.95Zm129,8.79-53.1,95.82-1.6-2.89-.67,1.18L2263,3630.57l111.89-204.78,93.82.8-52.27,94.26,53.85,97.75Zm255-181.53,49.7,89.61-51.1,91.92H2513.13l-48.64-88,51.49-94.48Zm-124.75-44.71-111.2-1.08v-201.4L2546.9,3287Zm157.41-184.22-78.58,51-182.31-107.93.74-99.4,93.89,56.43,90.47-54.54v109Zm-75.79-311.68v110.8L2490,3058.8l-91.5-54,.82-109.48,87.28-52.57ZM3042,2762.56V2657.34l2.57.51v-7.07l82.81,49.59,67.05,118.92h44.79l51.28-92.31h.53l2.48-5.14h99.29l52.14,94-1.91,3.44h40.54l4.25-7.65-51.31-92.37h1.18l-2.34-2.57H3543.6l48.56-88.52.12.22.67-1.23,2.19,3.92.58-1.06,3,5.34v-98.85l-5.14,9.06-54-96.26H3429.24l42.65-85.14,56.33-36.51L3574,2298l16.17-9.54,8.56,5.14v-55.85l-86.2-51.79v-.36l-5.14-3,.13-98.94,87.53-52.59,3.68,2.22v-42.53l-6.54-3.94-84.8,51.13v-.87l-2.57,2.13v-105l-87.93-51.94.23-.13-1.2-.72,1.75-1h-75.47l.42.25-87,54-5.27,104.92v5.78l-75-42.47-34.88-58.39-37.54-62.78.72-1.3h-41.31l-51.77,93.31h-.66l-2.51,5.15-99.27-.13-52-93.9,2.46-4.43h-43.22l-2.65,4.78,52.09,93.68h-1.3l2.37,2.57H2760.93l-53.12,94v-.86l-.71,1.25-2.31-4.14-.64,1.12-4.47-8.36v103.16l7.77-14,54,95.12H2866l-8.94,18-32.91,65.33-3.19,2.05-.44-.25-.43.82-.52.31-51.42,33.42-4.52,2.93-55.15,35.74-8.8-5.23v51.66l80.12,48.21v.53l5.14,3V2611.1l-85.26,51.07v43l15.47-9.32,1-.61,66.2-39.49v106l5.14,1.75v-1.9l94.69,56-2.57,1.6.24.16h72.68l-2.53-1.53ZM2784.94,2655l-1.49-.46,1.49-.9Zm259.66-47.2.93-127.64h192.33l-98.13,179.63Zm5.15-163.64v-198h187.67v198Zm470.95,52.24,49.75,89.65-51.06,92.07H3414.94l-48.67-88.1,51.41-94.44Zm-223.37-542.8,84.59-50.86,86.89,52.22v106.81l-83,49.85L3296.55,2059Zm-7.77,153.74,86.76,52.13,89.91-53.69v106l88.07,52.92-2.57,1.62,1.11.7-75,45-189-111.91ZM3276,2238.43l175.13,103.64-52.37,104.68-122.76-1Zm.63,249.46,93.83.77-52.29,94.27,53.92,97.78H3265.69l-53.12,95.76-1.6-2.87-.67,1.22-45.65-82Zm-112.19-459.12,85.85,46.54-1,134.92H3065.3Zm-129-8.79,53.11-95.81,1.6,2.89.67-1.19,45.56,82.15L3024.46,2212.8l-93.83-.8,52.28-94.27L2929.06,2020Zm-255,181.54-49.7-89.62,51.11-91.92h104.44l48.65,88.05-51.49,94.49Zm124.76,44.7,111.19,1.08v201.41l-163.87-97.08Zm-157.41,184.22,78.57-51,182.32,107.94-.74,99.39L2914,2530.4l-90.46,54.53V2476Zm75.79,311.68V2631.33l85.89-51.55,91.5,54-.82,109.49-87.29,52.57ZM3043.32,2876v105.23l2.57-.52v7.07l82.81-49.59,67.05-118.92h44.79l51.27,92.31h.54l2.47,5.14h99.3l52.14-94-1.91-3.45h40.54l4.24,7.65-51.31,92.37H3439l-2.34,2.58h108.22l48.56,88.51.12-.21.67,1.22,2.18-3.92.58,1.06,3-5.34v98.86l-5.14-9.06-54,96.25H3430.53l42.65,85.15,56.33,36.51,45.76,29.64,16.17,9.54L3600,3345v55.85l-86.2,51.8v.36l-5.14,3,.12,98.94,87.53,52.6,3.69-2.22v42.53l-6.55,3.93-84.79-51.12v.86l-2.58-2.13v105l-87.92,51.93.23.13-1.21.72,1.75,1h-75.47l.43-.25-87.06-54L3251.56,3599v-5.78l-75,42.47-34.89,58.38-37.53,62.78.72,1.31h-41.32l-51.76-93.32h-.67l-2.5-5.14-99.27.13-52,93.9,2.46,4.43h-43.22l-2.66-4.79,52.09-93.67h-1.29l2.36-2.57H2762.22l-53.12-94.05v.87l-.72-1.26-2.3,4.15-.64-1.13-4.48,8.36V3471l7.78,14,54-95.13h104.56l-8.95-18-32.91-65.33-3.18-2.06-.44.26-.44-.82-.51-.31-51.42-33.42-4.53-2.93-55.14-35.74-8.81,5.22V3185l80.13-48.22v-.53l5.14-2.95V3027.49L2701,2976.42v-43l15.47,9.31,1,.62,66.2,39.48v-106l5.14-1.74v1.9l94.69-56-2.58-1.59.25-.17h72.67l-2.52,1.53Zm-257.09,107.54-1.49.46,1.49.9Zm259.66,47.2.93,127.65h192.33L3141,2978.78ZM3051,3194.4v198h187.68v-198Zm471-52.24,49.74-89.65-51.05-92.06H3416.22l-48.67,88.09L3419,3143ZM3298.61,3685l84.6,50.85,86.88-52.22V3576.79l-83-49.85-89.21,52.69Zm-7.76-153.75,86.75-52.12,89.92,53.69v-106l88.07-52.92-2.57-1.62,1.1-.69-75-45-189,111.91Zm-13.58-131.07,175.13-103.63L3400,3191.83l-122.76,1Zm.64-249.45,93.82-.78-52.29-94.26,53.92-97.78H3267l-53.12-95.76-1.6,2.86-.68-1.21-45.64,82Zm-112.19,459.11,85.84-46.53-1-134.92H3066.59Zm-129,8.79,53.1,95.82,1.6-2.89.68,1.18,45.55-82.14-111.89-204.78-93.82.8,52.27,94.26-53.85,97.75Zm-255-181.53-49.7,89.61,51.11,91.92h104.44l48.65-88-51.49-94.48Zm124.76-44.71,111.19-1.08v-201.4L2853.74,3287ZM2749,3208.14l78.58,51,182.32-107.93-.74-99.4-93.9,56.43-90.47-54.54v109Zm75.79-311.68v110.8l85.9,51.54,91.49-54-.82-109.48-87.28-52.57Zm-467.47-133.9V2657.34l-2.57.51v-7.07l-82.81,49.59-67.05,118.92h-44.78L2108.83,2727h-.53l-2.48-5.14h-99.3l-52.14,94,1.92,3.44h-40.55l-4.24-7.65,51.31-92.37h-1.19l2.34-2.57H1855.76l-48.56-88.52-.12.22-.68-1.23-2.18,3.92-.58-1.06-3,5.34v-98.85l5.14,9.06,54-96.26h110.35l-42.65-85.14-56.33-36.51L1825.37,2298l-16.17-9.54-8.56,5.14v-55.85l86.21-51.79v-.36l5.14-3-.13-98.94-87.53-52.59-3.69,2.22v-42.53l6.55-3.94L1892,2038v-.87l2.57,2.13v-105l87.92-51.94-.23-.13,1.21-.72-1.75-1h75.47l-.42.25,87,54,5.27,104.92v5.78l75-42.47,34.89-58.39,37.54-62.78-.73-1.3h41.32l51.77,93.31h.66l2.5,5.15,99.27-.13,52-93.9-2.46-4.43h43.22l2.65,4.78-52.09,93.68h1.3l-2.37,2.57h104.87l53.11,94v-.86l.72,1.25,2.3-4.14.64,1.12,4.48-8.36v103.16l-7.78-14-54,95.12H2533.35l9,18,32.91,65.33,3.19,2.05.43-.25.44.82.52.31,51.41,33.42,4.53,2.93,55.14,35.74,8.81-5.23v51.66l-80.12,48.21v.53l-5.14,3V2611.1l85.26,51.07v43l-15.47-9.32-1-.61L2617,2655.74v106l-5.15,1.75v-1.9l-94.68,56,2.57,1.6-.24.16h-72.68l2.53-1.53ZM2614.42,2655l1.49-.46-1.49-.9Zm-259.67-47.2-.92-127.64H2161.5l98.13,179.63Zm-5.14-163.64v-198H2161.93v198Zm-470.95,52.24-49.75,89.65,51,92.07h104.46l48.67-88.1-51.41-94.44ZM2102,1953.62l-84.59-50.86L1930.55,1955v106.81l83,49.85,89.2-52.68Zm7.77,153.74L2023,2159.49l-89.92-53.69v106l-88.07,52.92,2.57,1.62-1.1.7,75,45,189-111.91Zm13.57,131.07-175.13,103.64,52.37,104.68,122.76-1Zm-.64,249.46-93.82.77,52.29,94.27-53.92,97.78h106.39l53.11,95.76,1.61-2.87.67,1.22,45.64-82Zm112.19-459.12-85.84,46.54,1,134.92h183.95Zm129-8.79-53.1-95.81-1.6,2.89-.67-1.19L2263,2008,2374.9,2212.8l93.82-.8-52.27-94.27L2470.3,2020Zm255,181.54,49.7-89.62-51.1-91.92H2513.13L2464.49,2108l51.49,94.49Zm-124.75,44.7L2383,2247.3v201.41l163.87-97.08Zm157.41,184.22-78.58-51-182.31,107.94.74,99.39,93.89-56.42,90.47,54.53V2476Zm-75.79,311.68V2631.33L2490,2579.78l-91.5,54,.82,109.49,87.28,52.57ZM558,2876v105.23l-2.57-.52v7.07l-82.81-49.59-67-118.92H360.75l-51.28,92.31h-.53l-2.48,5.14H207.17l-52.14-94,1.91-3.45H116.4l-4.25,7.65,51.31,92.37h-1.18l2.34,2.58H56.4L7.84,3010.4l-.12-.21-.67,1.22-2.19-3.92-.58,1.06-3-5.34v98.86L6.43,3093l54,96.25H170.76l-42.65,85.15-56.33,36.51L26,3340.56,9.85,3350.1,1.29,3345v55.85l86.2,51.8v.36l5.14,3-.13,98.94L5,3607.51l-3.68-2.22v42.53l6.54,3.93,84.8-51.12v.86l2.57-2.13v105l87.93,51.93-.23.13,1.2.72-1.75,1h75.47l-.42-.25,87.05-54L349.72,3599v-5.78l75,42.47,34.88,58.38,37.54,62.78-.72,1.31h41.31l51.77-93.32h.66l2.51-5.14,99.27.13,52,93.9-2.46,4.43h43.22l2.65-4.79-52.09-93.67h1.3l-2.37-2.57H839.07l53.12-94.05v.87l.71-1.26,2.31,4.15.64-1.13,4.47,8.36V3471l-7.77,14-54-95.13H734l8.94-18,32.91-65.33,3.19-2.06.44.26.43-.82.52-.31,51.42-33.42,4.52-2.93,55.15-35.74,8.8,5.22V3185L820.2,3136.8v-.53l-5.14-2.95V3027.49l85.26-51.07v-43l-15.47,9.31-1,.62-66.2,39.48v-106l-5.14-1.74v1.9l-94.69-56,2.57-1.59-.24-.17H647.45l2.53,1.53Zm257.09,107.54,1.49.46-1.49.9Zm-259.66,47.2-.93,127.65H362.14l98.13-179.63Zm-5.15,163.64v198H362.58v-198ZM79.3,3142.16l-49.75-89.65,51.06-92.06H185.06l48.67,88.09L182.32,3143ZM302.67,3685l-84.59,50.85-86.89-52.22V3576.79l83.05-49.85,89.21,52.69Zm7.77-153.75-86.76-52.12-89.91,53.69v-106L45.7,3373.84l2.57-1.62-1.11-.69,75-45,189,111.91ZM324,3400.15,148.88,3296.52l52.37-104.69,122.76,1Zm-.63-249.45-93.83-.78,52.29-94.26-53.92-97.78H334.31l53.12-95.76L389,2865l.67-1.21,45.65,82Zm112.19,459.11-85.85-46.53,1-134.92h184Zm129,8.79-53.11,95.82-1.6-2.89-.67,1.18-45.56-82.14,111.89-204.78,93.83.8-52.28,94.26,53.85,97.75Zm255-181.53,49.7,89.61-51.11,91.92H713.78l-48.65-88,51.49-94.48Zm-124.76-44.71-111.19-1.08v-201.4L747.55,3287Zm157.41-184.22-78.57,51L591.39,3151.16l.74-99.4,93.9,56.43,90.46-54.54v109Zm-75.79-311.68v110.8L690.6,3058.8l-91.5-54,.82-109.48,87.29-52.57Zm466.19-133.9V2657.34l2.57.51v-7.07l82.81,49.59,67,118.92h44.78l51.28-92.31h.53l2.48-5.14h99.3l52.14,94-1.92,3.44h40.55l4.24-7.65-51.31-92.37h1.19l-2.34-2.57h108.21l48.56-88.52.12.22.68-1.23,2.18,3.92.58-1.06,3,5.34v-98.85l-5.14,9.06-54-96.26H1629.88l42.65-85.14,56.33-36.51,45.77-29.64,16.17-9.54,8.56,5.14v-55.85L1713.15,2186v-.36l-5.14-3,.13-98.94,87.53-52.59,3.69,2.22v-42.53l-6.55-3.94L1708,2038v-.87l-2.57,2.13v-105l-87.92-51.94.23-.13-1.21-.72,1.75-1h-75.47l.42.25-87,54-5.27,104.92v5.78l-75-42.47L1341,1944.47l-37.54-62.78.73-1.3h-41.32l-51.77,93.31h-.66l-2.5,5.15-99.27-.13-52-93.9,2.46-4.43h-43.22l-2.65,4.78,52.09,93.68h-1.3l2.37,2.57H961.57l-53.11,94v-.86l-.72,1.25-2.3-4.14-.64,1.12-4.48-8.36v103.16l7.78-14,54,95.12h104.56l-9,18-32.91,65.33-3.19,2.05-.43-.25-.44.82-.52.31-51.41,33.42-4.53,2.93-55.14,35.74-8.81-5.23v51.66l80.12,48.21v.53l5.14,3V2611.1l-85.26,51.07v43l15.47-9.32,1-.61L983,2655.74v106l5.15,1.75v-1.9l94.68,56-2.57,1.6.24.16h72.68l-2.53-1.53ZM985.58,2655l-1.49-.46,1.49-.9Zm259.67-47.2.92-127.64H1438.5l-98.13,179.63Zm5.14-163.64v-198h187.68v198Zm470.95,52.24,49.75,89.65-51,92.07H1615.58l-48.67-88.1,51.41-94.44ZM1498,1953.62l84.59-50.86,86.89,52.22v106.81l-83,49.85L1497.2,2059Zm-7.77,153.74,86.76,52.13,89.92-53.69v106l88.07,52.92-2.57,1.62,1.1.7-75,45-189-111.91Zm-13.57,131.07,175.13,103.64-52.37,104.68-122.76-1Zm.64,249.46,93.82.77-52.29,94.27,53.92,97.78H1466.33l-53.11,95.76-1.61-2.87-.67,1.22-45.64-82Zm-112.19-459.12,85.84,46.54-1,134.92h-184Zm-129-8.79,53.1-95.81,1.6,2.89.67-1.19L1337,2008,1225.1,2212.8l-93.82-.8,52.27-94.27L1129.7,2020ZM981,2201.52l-49.7-89.62,51.1-91.92h104.45l48.64,88.05L1084,2202.52Zm124.75,44.7,111.2,1.08v201.41l-163.87-97.08ZM948.36,2430.44l78.58-51,182.31,107.94-.74,99.39-93.89-56.42-90.47,54.53V2476Zm75.79,311.68V2631.33l85.89-51.55,91.5,54-.82,109.49-87.28,52.57ZM1244,2876v105.23l2.57-.52v7.07l82.81-49.59,67.05-118.92h44.79l51.28,92.31h.53l2.48,5.14h99.29l52.14-94-1.91-3.45h40.54l4.24,7.65-51.3,92.37h1.18l-2.34,2.58h108.22l48.56,88.51.12-.21.67,1.22,2.19-3.92.57,1.06,3-5.34v98.86l-5.14-9.06-54,96.25H1631.17l42.65,85.15,56.33,36.51,45.76,29.64,16.17,9.54,8.56-5.15v55.85l-86.2,51.8v.36l-5.14,3,.13,98.94,87.52,52.6,3.69-2.22v42.53l-6.54,3.93-84.8-51.12v.86l-2.57-2.13v105l-87.93,51.93.23.13-1.2.72,1.75,1H1544.1l.43-.25-87-54L1452.21,3599v-5.78l-75,42.47-34.88,58.38-37.54,62.78.72,1.31h-41.32l-51.76-93.32h-.66l-2.51-5.14-99.27.13-52,93.9,2.46,4.43h-43.22l-2.65-4.79,52.09-93.67h-1.3l2.37-2.57H962.86l-53.12-94.05v.87l-.71-1.26-2.31,4.15-.64-1.13-4.47,8.36V3471l7.77,14,54-95.13h104.56l-9-18-32.9-65.33-3.19-2.06-.44.26-.43-.82-.52-.31-51.42-33.42-4.52-2.93-55.15-35.74-8.8,5.22V3185l80.12-48.22v-.53l5.14-2.95V3027.49l-85.26-51.07v-43l15.47,9.31,1,.62,66.2,39.48v-106l5.14-1.74v1.9l94.69-56-2.57-1.59.24-.17h72.68l-2.53,1.53ZM986.87,2983.56l-1.49.46,1.49.9Zm259.66,47.2.93,127.65h192.33l-98.13-179.63Zm5.15,163.64v198h187.67v-198Zm471-52.24,49.75-89.65-51.06-92.06H1616.86l-48.66,88.09,51.41,94.44ZM1499.26,3685l84.59,50.85,86.88-52.22V3576.79l-83-49.85-89.21,52.69Zm-7.77-153.75,86.76-52.12,89.91,53.69v-106l88.07-52.92-2.57-1.62,1.11-.69-75-45-189,111.91Zm-13.57-131.07,175.13-103.63-52.37-104.69-122.76,1Zm.63-249.45,93.83-.78-52.29-94.26,53.91-97.78H1467.62l-53.12-95.76-1.6,2.86-.67-1.21-45.65,82Zm-112.19,459.11,85.85-46.53-1-134.92h-184Zm-129,8.79,53.1,95.82,1.61-2.89.67,1.18,45.55-82.14-111.88-204.78-93.83.8,52.28,94.26L1131,3618.6Zm-255-181.53-49.7,89.61,51.11,91.92h104.44l48.65-88-51.49-94.48Zm124.76-44.71,111.19-1.08v-201.4L1054.38,3287ZM949.65,3208.14l78.57,51,182.32-107.93-.74-99.4-93.9,56.43-90.47-54.54v109Zm75.78-311.68v110.8l85.9,51.54,91.5-54-.82-109.48-87.29-52.57ZM558,2762.56V2657.34l-2.57.51v-7.07l-82.81,49.59-67,118.92H360.75L309.47,2727h-.53l-2.48-5.14H207.17l-52.14,94,1.91,3.44H116.4l-4.25-7.65,51.31-92.37h-1.18l2.34-2.57H56.4L7.84,2628.18l-.12.22-.67-1.23-2.19,3.92L4.28,2630l-3,5.34v-98.85l5.14,9.06,54-96.26H170.76l-42.65-85.14-56.33-36.51L26,2298l-16.17-9.54-8.56,5.14v-55.85L87.49,2186v-.36l5.14-3-.13-98.94L5,2031.08l-3.68,2.22v-42.53l6.54-3.94L92.63,2038v-.87l2.57,2.13v-105l87.93-51.94-.23-.13,1.2-.72-1.75-1h75.47l-.42.25,87.05,54,5.27,104.92v5.78l75-42.47,34.88-58.39,37.54-62.78-.72-1.3h41.31l51.77,93.31h.66l2.51,5.15,99.27-.13,52-93.9-2.46-4.43h43.22l2.65,4.78-52.09,93.68h1.3l-2.37,2.57H839.07l53.12,94v-.86l.71,1.25,2.31-4.14.64,1.12,4.47-8.36v103.16l-7.77-14-54,95.12H734l8.94,18,32.91,65.33,3.19,2.05.44-.25.43.82.52.31,51.42,33.42,4.52,2.93,55.15,35.74,8.8-5.23v51.66l-80.12,48.21v.53l-5.14,3V2611.1l85.26,51.07v43l-15.47-9.32-1-.61-66.2-39.49v106l-5.14,1.75v-1.9l-94.69,56,2.57,1.6-.24.16H647.45l2.53-1.53ZM815.06,2655l1.49-.46-1.49-.9Zm-259.66-47.2-.93-127.64H362.14l98.13,179.63Zm-5.15-163.64v-198H362.58v198ZM79.3,2496.42l-49.75,89.65,51.06,92.07H185.06l48.67-88.1-51.41-94.44Zm223.37-542.8-84.59-50.86L131.19,1955v106.81l83.05,49.85L303.45,2059Zm7.77,153.74-86.76,52.13-89.91-53.69v106L45.7,2264.74l2.57,1.62-1.11.7,75,45,189-111.91ZM324,2238.43,148.88,2342.07l52.37,104.68,122.76-1Zm-.63,249.46-93.83.77,52.29,94.27-53.92,97.78H334.31l53.12,95.76,1.6-2.87.67,1.22,45.65-82Zm112.19-459.12-85.85,46.54,1,134.92h184Zm129-8.79-53.11-95.81-1.6,2.89-.67-1.19L463.65,2008,575.54,2212.8l93.83-.8-52.28-94.27L670.94,2020Zm255,181.54,49.7-89.62L818.22,2020H713.78L665.13,2108l51.49,94.49Zm-124.76,44.7-111.19,1.08v201.41l163.87-97.08Zm157.41,184.22-78.57-51L591.39,2487.43l.74,99.39L686,2530.4l90.46,54.53V2476Zm-75.79,311.68V2631.33l-85.89-51.55-91.5,54,.82,109.49,87.29,52.57Z"/>
      <path class="cls-1" d="M2356,882.18V777l-2.57.52V770.4L2270.66,820l-67,118.92h-44.79l-51.28-92.31H2107l-2.48-5.14h-99.29l-52.14,94,1.91,3.45h-40.54l-4.24-7.65,51.3-92.38h-1.18l2.34-2.57H1854.47l-48.56-88.51-.12.21-.67-1.22-2.19,3.92-.57-1.06-3,5.34V656.13l5.14,9.06,54-96.25h110.34l-42.65-85.15-56.33-36.51-45.76-29.64-16.17-9.54-8.56,5.14V357.4l86.2-51.8v-.36l5.14-3-.13-98.94-87.52-52.6-3.69,2.22V110.38l6.54-3.93,84.8,51.12v-.86l2.57,2.13v-105L1981.2,1.9l-.23-.13,1.2-.72-1.75-1h75.48l-.43.25,87.05,54,5.27,104.92v5.78l75-42.47,34.88-58.38,37.54-62.78L2294.49,0h41.32l51.76,93.32h.66l2.51,5.14,99.27-.13,52-93.9L2539.56,0h43.22l2.65,4.79-52.09,93.67h1.3l-2.37,2.57h104.87l53.12,94.05v-.87l.71,1.26,2.31-4.15.64,1.13,4.47-8.36V287.24l-7.77-14-54,95.13H2532.07l8.95,18,32.9,65.33,3.19,2.06.44-.26.43.82.52.31,51.42,33.42,4.52,2.93,55.15,35.74,8.8-5.23v51.66l-80.12,48.21v.54l-5.14,3V730.71l85.26,51.07v43l-15.47-9.31-1-.62-66.2-39.49V881.3l-5.14,1.75v-1.9l-94.69,56,2.57,1.59-.24.17h-72.68l2.53-1.53Zm257.09-107.54,1.49-.47-1.49-.9Zm-259.66-47.2-.93-127.65H2160.21l98.13,179.63Zm-5.15-163.64v-198H2160.65v198Zm-471,52.23-49.75,89.66,51.06,92.06h104.46l48.66-88.09-51.41-94.45Zm223.37-542.8-84.59-50.85L1929.27,74.6V181.41l83,49.85,89.21-52.69ZM2108.51,227l-86.76,52.12-89.91-53.69v106l-88.07,52.93,2.57,1.62-1.11.69,75,45,189-111.91Zm13.57,131.07L1947,461.68l52.37,104.69,122.76-1Zm-.63,249.45-93.83.78,52.29,94.26L2026,800.32h106.38l53.12,95.76,1.6-2.86.67,1.21,45.65-82Zm112.19-459.11-85.85,46.53,1,134.92h183.95Zm129-8.8-53.1-95.81L2308,46.67l-.67-1.18-45.55,82.14,111.88,204.78,93.83-.8-52.28-94.26L2469,139.59Zm255,181.54,49.7-89.61-51.11-91.93H2511.85l-48.65,88.06,51.49,94.48Zm-124.76,44.71-111.19,1.08v201.4l163.87-97.08Zm157.41,184.22-78.57-50.95L2389.46,607l.74,99.4L2484.1,650l90.47,54.54v-109Zm-75.78,311.67V750.94l-85.9-51.54-91.5,54,.82,109.48,87.29,52.57Zm466.18,133.9v105.23l2.57-.51v7.07l82.81-49.6,67-118.91H3238l51.27,92.31h.53l2.48,5.14h99.3l52.14-94-1.91-3.44h40.54l4.24,7.64-51.31,92.38h1.19l-2.34,2.57h108.21l48.56,88.52.12-.22.68,1.22,2.18-3.91.58,1.06,3-5.34v98.85l-5.14-9.06-54,96.26H3428L3470.6,1394l56.33,36.51,45.77,29.64,16.17,9.54,8.56-5.14v55.85l-86.2,51.79v.36l-5.15,3,.13,99,87.53,52.59,3.69-2.22v42.53l-6.55,3.94-84.8-51.13v.87l-2.57-2.13v105l-87.92,51.94.23.13-1.21.72,1.75,1h-75.47l.42-.25-87-54L3249,1718.65v-5.78l-75,42.47-34.89,58.39-37.54,62.78.73,1.3H3061l-51.77-93.31h-.66l-2.5-5.15-99.27.13-52,93.9,2.45,4.43H2814l-2.66-4.78,52.09-93.68h-1.29l2.36-2.57H2759.64l-53.11-94v.86l-.72-1.25-2.3,4.14-.64-1.12-4.48,8.36V1590.57l7.78,14,54-95.12h104.56l-8.95-18-32.91-65.33-3.19-2-.43.25-.44-.82-.51-.31-51.42-33.42-4.53-2.93-55.14-35.74-8.81,5.23v-51.66l80.12-48.21v-.53l5.15-3V1147.1L2698.39,1096v-43l15.47,9.32,1,.61,66.19,39.49v-106l5.15-1.75v1.9l94.68-56-2.57-1.6.24-.16h72.68l-2.53,1.53Zm-257.09,107.55-1.5.46,1.5.9Zm259.66,47.2.92,127.64h192.33l-98.13-179.63Zm5.14,163.64v198h187.68V1314Zm470.95-52.24,49.75-89.65-51-92.07H3413.65L3365,1168.15l51.41,94.45ZM3296,1804.58l84.59,50.85,86.89-52.21V1696.41l-83.05-49.85-89.2,52.68Zm-7.77-153.74,86.76-52.13L3465,1652.4v-106l88.07-52.92-2.57-1.62,1.1-.7-75-45-189,111.91Zm-13.57-131.07,175.13-103.64-52.37-104.68-122.76,1Zm.64-249.46,93.82-.77-52.29-94.27,53.92-97.78H3264.4l-53.11-95.76-1.61,2.87-.67-1.22-45.64,82Zm-112.19,459.12,85.84-46.54L3248,1548H3064Zm-129,8.79,53.1,95.81,1.6-2.89.67,1.19,45.56-82.15L3023.17,1545.4l-93.82.8,52.27,94.27-53.85,97.75Zm-255-181.54-49.7,89.62,51.11,91.92h104.44l48.65-88.06-51.5-94.48Zm124.76-44.7L3015,1510.9V1309.49l-163.87,97.08Zm-157.42-184.22,78.58,51,182.32-107.94-.75-99.39-93.89,56.42-90.47-54.53v109Zm75.79-311.68v110.79l85.89,51.55,91.5-54-.82-109.49-87.28-52.57ZM3042,882.18V777l2.57.52V770.4L3127.41,820l67.05,118.92h44.79l51.28-92.31h.53l2.48-5.14h99.29l52.14,94-1.91,3.45h40.54l4.25-7.65-51.31-92.38h1.18l-2.34-2.57H3543.6l48.56-88.51.12.21.67-1.22,2.19,3.92.58-1.06,3,5.34V656.13l-5.14,9.06-54-96.25H3429.24l42.65-85.15,56.33-36.51L3574,417.64l16.17-9.54,8.56,5.14V357.4l-86.2-51.8v-.36l-5.14-3,.13-98.94,87.53-52.6,3.68,2.22V110.38l-6.54-3.93-84.8,51.12v-.86l-2.57,2.13v-105L3416.87,1.9l.23-.13-1.2-.72,1.75-1h-75.47l.42.25-87,54-5.27,104.92v5.78l-75-42.47L3140.4,64.09,3102.86,1.31l.72-1.31h-41.31L3010.5,93.32h-.66l-2.51,5.14-99.27-.13-52-93.9L2858.51,0h-43.22l-2.65,4.79,52.09,93.67h-1.3l2.37,2.57H2760.93l-53.12,94.05v-.87l-.71,1.26-2.31-4.15-.64,1.13-4.47-8.36V287.24l7.77-14,54,95.13H2866l-8.94,18-32.91,65.33-3.19,2.06-.44-.26-.43.82-.52.31-51.42,33.42-4.52,2.93-55.15,35.74-8.8-5.23v51.66l80.12,48.21v.54l5.14,3V730.71l-85.26,51.07v43l15.47-9.31,1-.62,66.2-39.49V881.3l5.14,1.75v-1.9l94.69,56-2.57,1.59.24.17h72.68l-2.53-1.53ZM2784.94,774.64l-1.49-.47,1.49-.9Zm259.66-47.2.93-127.65h192.33l-98.13,179.63Zm5.15-163.64v-198h187.67v198ZM3520.7,616l49.75,89.66-51.06,92.06H3414.94l-48.67-88.09,51.41-94.45ZM3297.33,73.23l84.59-50.85,86.89,52.22V181.41l-83,49.85-89.21-52.69ZM3289.56,227l86.76,52.12,89.91-53.69v106l88.07,52.93-2.57,1.62,1.11.69-75,45-189-111.91ZM3276,358.05l175.13,103.63-52.37,104.69-122.76-1Zm.63,249.45,93.83.78-52.29,94.26,53.92,97.78H3265.69l-53.12,95.76-1.6-2.86-.67,1.21-45.65-82ZM3164.43,148.39l85.85,46.53-1,134.92H3065.3Zm-129-8.8,53.11-95.81,1.6,2.89.67-1.18,45.56,82.14L3024.46,332.41l-93.83-.8,52.28-94.26-53.85-97.76Zm-255,181.54-49.7-89.61,51.11-91.93h104.44l48.65,88.06-51.49,94.48Zm124.76,44.71,111.19,1.08v201.4l-163.87-97.08ZM2747.72,550.06l78.57-50.95L3008.61,607l-.74,99.4L2914,650l-90.46,54.54v-109Zm75.79,311.67V750.94l85.89-51.54,91.5,54-.82,109.48-87.29,52.57ZM2356,995.63v105.23l-2.57-.51v7.07l-82.81-49.6-67-118.91h-44.79l-51.28,92.31H2107l-2.48,5.14h-99.29l-52.14-94,1.91-3.44h-40.54l-4.24,7.64,51.3,92.38h-1.18l2.34,2.57H1854.47L1805.91,1130l-.12-.22-.67,1.22-2.19-3.91-.57,1.06-3-5.34v98.85l5.14-9.06,54,96.26h110.34L1926.18,1394l-56.33,36.51-45.76,29.64-16.17,9.54-8.56-5.14v55.85l86.2,51.79v.36l5.14,3-.13,99-87.52,52.59-3.69-2.22v42.53l6.54,3.94,84.8-51.13v.87l2.57-2.13v105l87.93,51.94-.23.13,1.2.72-1.75,1h75.48l-.43-.25,87.05-54,5.27-104.92v-5.78l75,42.47,34.88,58.39,37.54,62.78-.72,1.3h41.32l51.76-93.31h.66l2.51-5.15,99.27.13,52,93.9-2.46,4.43h43.22l2.65-4.78-52.09-93.68h1.3l-2.37-2.57h104.87l53.12-94v.86l.71-1.25,2.31,4.14.64-1.12,4.47,8.36V1590.57l-7.77,14-54-95.12H2532.07l8.95-18,32.9-65.33,3.19-2,.44.25.43-.82.52-.31,51.42-33.42,4.52-2.93,55.15-35.74,8.8,5.23v-51.66l-80.12-48.21v-.53l-5.14-3V1147.1l85.26-51.07v-43l-15.47,9.32-1,.61-66.2,39.49v-106l-5.14-1.75v1.9l-94.69-56,2.57-1.6-.24-.16h-72.68l2.53,1.53Zm257.09,107.55,1.49.46-1.49.9Zm-259.66,47.2-.93,127.64H2160.21l98.13-179.63ZM2348.32,1314v198H2160.65V1314Zm-471-52.24-49.75-89.65,51.06-92.07h104.46l48.66,88.09-51.41,94.45Zm223.37,542.8-84.59,50.85-86.88-52.21V1696.41l83-49.85,89.21,52.68Zm7.77-153.74-86.76-52.13-89.91,53.69v-106l-88.07-52.92,2.57-1.62-1.11-.7,75-45,189,111.91Zm13.57-131.07L1947,1416.13l52.37-104.68,122.76,1Zm-.63-249.46-93.83-.77,52.29-94.27L2026,1077.49h106.38l53.12-95.76,1.6,2.87.67-1.22,45.65,82Zm112.19,459.12-85.85-46.54,1-134.92h183.95Zm129,8.79-53.1,95.81-1.61-2.89-.67,1.19-45.55-82.15,111.88-204.78,93.83.8-52.28,94.27,53.85,97.75Zm255-181.54,49.7,89.62-51.11,91.92H2511.85l-48.65-88.06,51.49-94.48ZM2492.94,1512l-111.19-1.08V1309.49l163.87,97.08Zm157.41-184.22-78.57,51-182.32-107.94.74-99.39,93.9,56.42,90.47-54.53v109Zm-75.78-311.68v110.79l-85.9,51.55-91.5-54L2398,1015l87.29-52.57ZM556.68,882.18V777l-2.57.52V770.4L471.3,820,404.25,938.91H359.46L308.19,846.6h-.54l-2.47-5.14h-99.3l-52.14,94,1.91,3.45H115.11l-4.24-7.65,51.31-92.38H161l2.34-2.57H55.11L6.55,747.8l-.12.21-.67-1.22-2.18,3.92L3,749.65,0,755V656.13l5.14,9.06,54-96.25H169.47l-42.65-85.15L70.49,447.28,24.73,417.64,8.56,408.1,0,413.24V357.4l86.2-51.8v-.36l5.14-3-.12-98.94L3.69,150.69,0,152.91V110.38l6.55-3.93,84.79,51.12v-.86l2.58,2.13v-105L181.84,1.9l-.23-.13,1.21-.72-1.75-1h75.47l-.43.25,87.06,54,5.27,104.92v5.78l75-42.47,34.89-58.38L495.85,1.31,495.13,0h41.32l51.76,93.32h.67l2.5,5.14,99.27-.13,52-93.9L740.2,0h43.22l2.66,4.79L734,98.46h1.29L732.92,101H837.78l53.12,94.05v-.87l.72,1.26,2.3-4.15.64,1.13,4.48-8.36V287.24l-7.78-14-54,95.13H732.71l8.95,18,32.91,65.33,3.18,2.06.44-.26.44.82.51.31,51.42,33.42,4.53,2.93,55.14,35.74,8.81-5.23v51.66l-80.13,48.21v.54l-5.14,3V730.71L899,781.78v43l-15.47-9.31-1-.62-66.2-39.49V881.3l-5.14,1.75v-1.9l-94.69,56,2.58,1.59-.25.17H646.17l2.52-1.53ZM813.77,774.64l1.49-.47-1.49-.9Zm-259.66-47.2-.93-127.65H360.85L459,779.42ZM549,563.8v-198H361.29v198ZM78,616,28.27,705.69l51.05,92.06H183.78l48.67-88.09L181,615.21ZM301.39,73.23l-84.6-50.85L129.91,74.6V181.41l83,49.85,89.21-52.69ZM309.15,227,222.4,279.1l-89.92-53.69v106L44.41,384.36,47,386l-1.1.69,75,45,189-111.91Zm13.58,131.07L147.6,461.68,200,566.37l122.76-1Zm-.64,249.45-93.82.78,52.29,94.26-53.92,97.78H333l53.12,95.76,1.6-2.86.68,1.21,45.64-82ZM434.28,148.39l-85.84,46.53,1,134.92h184Zm129-8.8L510.2,43.78l-1.6,2.89-.68-1.18-45.55,82.14L574.26,332.41l93.82-.8-52.27-94.26,53.85-97.76Zm255,181.54L868,231.52l-51.11-91.93H712.49l-48.65,88.06,51.49,94.48ZM693.58,365.84l-111.19,1.08v201.4l163.87-97.08ZM851,550.06l-78.58-50.95L590.1,607l.74,99.4L684.74,650l90.47,54.54v-109ZM775.21,861.73V750.94l-85.9-51.54-91.49,54,.82,109.48,87.28,52.57Zm466.18,133.9v105.23l2.57-.51v7.07l82.81-49.6,67-118.91h44.79l51.27,92.31h.54l2.48,5.14h99.29l52.14-94-1.91-3.44H1683l4.24,7.64-51.3,92.38h1.18l-2.34,2.57H1743l48.56,88.52.12-.22.67,1.22,2.19-3.91.57,1.06,3-5.34v98.85l-5.14-9.06-54,96.26H1628.6l42.65,85.14,56.33,36.51,45.76,29.64,16.17,9.54,8.56-5.14v55.85l-86.2,51.79v.36l-5.14,3,.13,99,87.52,52.59,3.69-2.22v42.53l-6.54,3.94-84.8-51.13v.87l-2.57-2.13v105l-87.93,51.94.23.13-1.21.72,1.75,1h-75.47l.43-.25-87.06-54-5.27-104.92v-5.78l-75,42.47-34.89,58.39-37.53,62.78.72,1.3h-41.32l-51.76-93.31h-.67l-2.5-5.15-99.27.13-52,93.9,2.46,4.43h-43.22L1012,1873l52.09-93.68h-1.29l2.36-2.57H960.29l-53.12-94v.86l-.72-1.25-2.3,4.14-.64-1.12-4.47,8.36V1590.57l7.77,14,54-95.12h104.56l-8.95-18-32.91-65.33-3.18-2-.44.25-.44-.82-.51-.31-51.42-33.42L963,1386.8l-55.15-35.74-8.8,5.23v-51.66l80.12-48.21v-.53l5.14-3V1147.1L899,1096v-43l15.46,9.32,1,.61,66.2,39.49v-106l5.14-1.75v1.9l94.69-56-2.57-1.6.24-.16h72.68l-2.53,1.53ZM984.3,1103.18l-1.49.46,1.49.9Zm259.66,47.2.93,127.64h192.33l-98.14-179.63ZM1249.1,1314v198h187.68V1314Zm471-52.24,49.74-89.65-51-92.07H1614.29l-48.67,88.09L1617,1262.6Zm-223.38,542.8,84.6,50.85,86.88-52.21V1696.41l-83-49.85-89.21,52.68Zm-7.76-153.74,86.75-52.13,89.92,53.69v-106l88.07-52.92-2.57-1.62,1.1-.7-75-45L1488.2,1558Zm-13.58-131.07,175.13-103.64-52.36-104.68-122.77,1Zm.64-249.46,93.82-.77-52.28-94.27,53.91-97.78H1465.05l-53.12-95.76-1.6,2.87-.67-1.22-45.65,82Zm-112.19,459.12,85.84-46.54-1-134.92H1264.66Zm-129,8.79,53.1,95.81,1.6-2.89.68,1.19,45.55-82.15L1223.81,1545.4l-93.82.8,52.27,94.27-53.85,97.75Zm-255-181.54L930,1646.3l51.11,91.92h104.44l48.65-88.06-51.49-94.48Zm124.76-44.7,111.19-1.08V1309.49l-163.87,97.08ZM947.08,1327.76l78.57,51L1208,1270.77l-.74-99.39-93.9,56.42-90.47-54.53v109Zm75.78-311.68v110.79l85.9,51.55,91.5-54-.83-109.49-87.28-52.57Zm219.82-133.9V777l2.57.52V770.4L1328.06,820l67,118.92h44.78l51.28-92.31h.53l2.48-5.14h99.3l52.14,94-1.92,3.45h40.55l4.24-7.65-51.31-92.38h1.19l-2.34-2.57h108.21l48.56-88.51.12.21.68-1.22,2.18,3.92.58-1.06,3,5.34V656.13l-5.14,9.06-54-96.25H1629.88l42.65-85.15,56.33-36.51,45.77-29.64,16.17-9.54,8.56,5.14V357.4l-86.21-51.8v-.36l-5.14-3,.13-98.94,87.53-52.6,3.69,2.22V110.38l-6.55-3.93L1708,157.57v-.86l-2.57,2.13v-105L1617.52,1.9l.23-.13-1.21-.72,1.75-1h-75.47l.42.25-87,54-5.27,104.92v5.78l-75-42.47L1341,64.09,1303.5,1.31l.73-1.31h-41.32l-51.77,93.32h-.66l-2.5,5.14-99.27-.13-52-93.9L1059.15,0h-43.22l-2.65,4.79,52.09,93.67h-1.3l2.37,2.57H961.57l-53.11,94.05v-.87l-.72,1.26-2.3-4.15-.64,1.13-4.48-8.36V287.24l7.78-14,54,95.13h104.56l-9,18-32.91,65.33-3.19,2.06-.43-.26-.44.82-.52.31L968.8,488.08,964.27,491l-55.14,35.74-8.81-5.23v51.66l80.12,48.21v.54l5.14,3V730.71l-85.26,51.07v43l15.47-9.31,1-.62L983,775.35V881.3l5.15,1.75v-1.9l94.68,56-2.57,1.59.24.17h72.68l-2.53-1.53ZM985.58,774.64l-1.49-.47,1.49-.9Zm259.67-47.2.92-127.65H1438.5l-98.13,179.63Zm5.14-163.64v-198h187.68v198ZM1721.34,616l49.75,89.66-51,92.06H1615.58l-48.67-88.09,51.41-94.45ZM1498,73.23l84.59-50.85,86.89,52.22V181.41l-83,49.85-89.2-52.69ZM1490.2,227,1577,279.1l89.92-53.69v106L1755,384.36l-2.57,1.62,1.1.69-75,45-189-111.91Zm-13.57,131.07,175.13,103.63-52.37,104.69-122.76-1Zm.64,249.45,93.82.78-52.29,94.26,53.92,97.78H1466.33l-53.11,95.76-1.61-2.86-.67,1.21-45.64-82ZM1365.08,148.39l85.84,46.53-1,134.92h-184Zm-129-8.8,53.1-95.81,1.6,2.89.67-1.18L1337,127.63,1225.1,332.41l-93.82-.8,52.27-94.26-53.85-97.76ZM981,321.13l-49.7-89.61,51.1-91.93h104.45l48.64,88.06L1084,322.13Zm124.75,44.71,111.2,1.08v201.4L1053.1,471.24ZM948.36,550.06l78.58-50.95L1209.25,607l-.74,99.4L1114.62,650l-90.47,54.54v-109Zm75.79,311.67V750.94L1110,699.4l91.5,54-.82,109.48-87.28,52.57ZM556.68,995.63v105.23l-2.57-.51v7.07l-82.81-49.6L404.25,938.91H359.46l-51.27,92.31h-.54l-2.47,5.14h-99.3l-52.14-94,1.91-3.44H115.11l-4.24,7.64,51.31,92.38H161l2.34,2.57H55.11L6.55,1130l-.12-.22L5.76,1131l-2.18-3.91L3,1128.17l-3-5.34v98.85l5.14-9.06,54,96.26H169.47L126.82,1394l-56.33,36.51-45.76,29.64-16.17,9.54L0,1464.57v55.85l86.2,51.79v.36l5.14,3-.12,99L3.69,1727.12,0,1724.9v42.53l6.55,3.94,84.79-51.13v.87l2.58-2.13v105l87.92,51.94-.23.13,1.21.72-1.75,1h75.47l-.43-.25,87.06-54,5.27-104.92v-5.78l75,42.47,34.89,58.39,37.53,62.78-.72,1.3h41.32l51.76-93.31h.67l2.5-5.15,99.27.13,52,93.9-2.46,4.43h43.22l2.66-4.78L734,1779.35h1.29l-2.36-2.57H837.78l53.12-94v.86l.72-1.25,2.3,4.14.64-1.12,4.48,8.36V1590.57l-7.78,14-54-95.12H732.71l8.95-18,32.91-65.33,3.18-2,.44.25.44-.82.51-.31,51.42-33.42,4.53-2.93,55.14-35.74,8.81,5.23v-51.66l-80.13-48.21v-.53l-5.14-3V1147.1L899,1096v-43l-15.47,9.32-1,.61-66.2,39.49v-106l-5.14-1.75v1.9l-94.69-56,2.58-1.6-.25-.16H646.17l2.52,1.53Zm257.09,107.55,1.49.46-1.49.9Zm-259.66,47.2L553.18,1278H360.85L459,1098.39ZM549,1314v198H361.29V1314ZM78,1261.78l-49.74-89.65,51.05-92.07H183.78l48.67,88.09L181,1262.6Zm223.38,542.8-84.6,50.85-86.88-52.21V1696.41l83-49.85,89.21,52.68Zm7.76-153.74-86.75-52.13-89.92,53.69v-106l-88.07-52.92,2.57-1.62-1.1-.7,75-45,189,111.91Zm13.58-131.07L147.6,1416.13,200,1311.45l122.76,1Zm-.64-249.46-93.82-.77,52.29-94.27-53.92-97.78H333l53.12-95.76,1.6,2.87.68-1.22,45.64,82Zm112.19,459.12-85.84-46.54,1-134.92h184Zm129,8.79L510.2,1834l-1.6-2.89-.68,1.19-45.55-82.15L574.26,1545.4l93.82.8-52.27,94.27,53.85,97.75Zm255-181.54L868,1646.3l-51.11,91.92H712.49l-48.65-88.06,51.49-94.48ZM693.58,1512l-111.19-1.08V1309.49l163.87,97.08ZM851,1327.76l-78.58,51L590.1,1270.77l.74-99.39,93.9,56.42,90.47-54.53v109Zm-75.79-311.68v110.79l-85.9,51.55-91.49-54,.82-109.49,87.28-52.57Z"/>
    </g>
  </g>
</svg>
